<svg width="18" height="23" viewBox="0 0 18 23" fill="none" xmlns="http://www.w3.org/2000/svg">
<path d="M8.60969 22.6563C7.8706 22.662 7.15774 22.3826 6.61933 21.8763C6.08091 21.3699 5.75836 20.6755 5.71875 19.9375C5.71875 19.8173 5.76649 19.7021 5.85147 19.6171C5.93644 19.5321 6.0517 19.4844 6.17188 19.4844H11.0656C11.1858 19.4844 11.3011 19.5321 11.386 19.6171C11.471 19.7021 11.5187 19.8173 11.5187 19.9375C11.4768 20.6779 11.1511 21.3737 10.6092 21.8801C10.0674 22.3864 9.35125 22.6644 8.60969 22.6563V22.6563ZM6.6975 20.4088C6.84256 20.8015 7.10448 21.1403 7.44799 21.3796C7.7915 21.6189 8.2001 21.7472 8.61875 21.7472C9.0374 21.7472 9.446 21.6189 9.78951 21.3796C10.133 21.1403 10.3949 20.8015 10.54 20.4088H6.6975Z" fill="#3E77BC"/>
<path d="M11.2198 4.76686C11.1069 4.7236 10.9813 4.72698 10.8709 4.77627C10.7604 4.82556 10.674 4.91671 10.6308 5.02968C10.5875 5.14264 10.5909 5.26817 10.6402 5.37864C10.6894 5.48911 10.7806 5.57547 10.8936 5.61874C10.8936 5.61874 13.0504 6.46155 13.0504 8.33749C13.0504 8.45766 13.0982 8.57292 13.1832 8.6579C13.2681 8.74287 13.3834 8.79061 13.5036 8.79061C13.6237 8.79061 13.739 8.74287 13.824 8.6579C13.909 8.57292 13.9567 8.45766 13.9567 8.33749C13.9567 5.83624 11.3286 4.81218 11.2198 4.76686Z" fill="#3E77BC"/>
<path d="M9.05324 2.22031V0.453125C9.05324 0.332949 9.0055 0.217695 8.92053 0.132717C8.83555 0.0477397 8.72029 0 8.60012 0C8.48067 0.00232007 8.36676 0.0508047 8.28228 0.135284C8.1978 0.219764 8.14931 0.333675 8.14699 0.453125V2.22031C6.50668 2.41063 0.81543 3.48 0.81543 9.08063V19.9556C0.817653 20.0736 0.864878 20.1862 0.947435 20.2704C1.02999 20.3547 1.14163 20.4041 1.25949 20.4088L6.31637 20.4813H10.8476L15.9136 20.4088C16.0314 20.4041 16.1431 20.3547 16.2256 20.2704C16.3082 20.1862 16.3554 20.0736 16.3576 19.9556V9.08063C16.4029 3.44375 10.6573 2.40156 9.05324 2.22031ZM15.4967 19.5025L10.8839 19.575H6.35262L1.72168 19.5025V9.08063C1.72168 3.52531 8.14699 3.10844 8.60918 3.08125C9.07137 3.05406 15.4876 3.51625 15.4876 9.08063L15.4967 19.5025Z" fill="#3E77BC"/>
<path d="M16.7656 20.3997H0.453125C0.332949 20.3997 0.217695 20.352 0.132717 20.267C0.0477399 20.182 0 20.0668 0 19.9466C0 19.8264 0.0477399 19.7112 0.132717 19.6262C0.217695 19.5412 0.332949 19.4935 0.453125 19.4935H16.7656C16.8858 19.4935 17.0011 19.5412 17.086 19.6262C17.171 19.7112 17.2188 19.8264 17.2188 19.9466C17.2188 20.0668 17.171 20.182 17.086 20.267C17.0011 20.352 16.8858 20.3997 16.7656 20.3997Z" fill="#3E77BC"/>
</svg>
