<svg width="24" height="24" viewBox="0 0 24 24" fill="none" xmlns="http://www.w3.org/2000/svg">
<path d="M20.1599 11.5C20.1632 12.8199 19.8671 14.1219 19.2959 15.3C18.6185 16.7118 17.5772 17.8992 16.2886 18.7293C15 19.5594 13.515 19.9994 11.9999 20C10.7328 20.0035 9.48287 19.6951 8.35188 19.1L2.87988 21L4.70388 15.3C4.13262 14.1219 3.83658 12.8199 3.83988 11.5C3.84047 9.92179 4.26287 8.37488 5.05977 7.03258C5.85668 5.69028 6.99661 4.6056 8.35188 3.90003C9.48287 3.30496 10.7328 2.99659 11.9999 3.00003H12.4799C14.4809 3.11502 16.3708 3.99479 17.7879 5.47089C19.2049 6.94699 20.0495 8.91568 20.1599 11V11.5Z" stroke="#4E6184" stroke-width="2" stroke-linecap="round" stroke-linejoin="round"/>
</svg>
