<svg width="117" height="108" viewBox="0 0 117 108" fill="none" xmlns="http://www.w3.org/2000/svg">
<g clip-path="url(#clip0_5663_8944)">
<path d="M113.163 78.117C111.257 73.6187 107.597 69.8646 103.2 68.0176C98.6203 66.0934 93.3615 66.7933 88.5377 66.1492C84.3481 65.5895 81.3257 63.6489 78.8236 60.1985C76.4268 56.8925 74.2774 53.2311 70.359 51.7016C67.2623 50.4929 63.7417 50.8286 60.6639 52.0873C54.9932 54.4078 50.7094 59.341 47.1018 64.2561C43.8082 68.7438 41.1219 73.6572 35.0296 73.8173C28.9334 73.9773 23.1298 70.3693 16.9925 71.3252C8.88055 72.5889 2.12403 79.5964 0.708512 87.9382C-0.618436 95.7565 2.71079 103.34 8.43059 107.795H106.743C113.951 99.8609 117.732 88.9015 113.163 78.117Z" fill="#F7F0E3"/>
<path d="M24.2905 107.795H24.561C26.4391 105.652 27.9107 103.054 28.8455 100.169C30.359 95.4988 30.2958 90.5976 28.6659 86.3685C27.8427 84.2309 26.6534 82.2394 25.5028 80.3128C24.3364 78.359 23.1304 76.3388 22.3119 74.1742C21.9735 73.279 21.7236 72.3181 21.5733 71.3375C21.5053 71.3285 21.4373 71.3211 21.3701 71.3121C21.5212 72.3279 21.7782 73.3233 22.1285 74.2489C22.9533 76.4307 24.1648 78.4591 25.3359 80.4203C26.4818 82.3387 27.6664 84.3237 28.4833 86.444C30.0957 90.628 30.1582 95.4791 28.6588 100.103C27.7123 103.024 26.2098 105.647 24.2913 107.795H24.2905Z" fill="white"/>
<path d="M106.268 98.8984C108.294 99.3464 110.246 99.7477 112.133 100C112.166 99.9356 112.197 99.8707 112.229 99.8059C110.325 99.5548 108.355 99.1503 106.309 98.6974C103.193 98.0089 99.8214 97.263 96.4763 97.263C94.4052 97.263 92.3452 97.5486 90.3635 98.3109C89.613 98.5997 88.8895 98.9657 88.1999 99.4022C86.4103 98.6112 84.6113 97.7472 82.8296 96.7986C84.1226 95.7877 85.4298 94.7981 86.7504 93.8413C96.5546 86.7377 105.603 82.7104 114.344 81.5674C114.327 81.5009 114.309 81.4345 114.29 81.368C105.525 82.5201 96.4581 86.558 86.6381 93.6731C85.289 94.6504 83.9549 95.6621 82.6351 96.6944C80.6312 95.6203 78.6511 94.4395 76.7342 93.1364C73.2579 90.7732 69.1237 87.3999 65.5129 82.9172C79.506 81.2884 93.7521 79.2362 105.386 71.1677C105.828 70.8616 106.318 70.4997 106.825 70.0903C106.768 70.0493 106.712 70.0082 106.655 69.9672C106.17 70.3578 105.701 70.7024 105.277 70.997C93.6461 79.0631 79.3731 81.0997 65.3626 82.7285C62.8108 79.5259 60.5309 75.7644 58.947 71.4097C56.4789 64.6262 56.6094 57.9699 59.3044 53.1458C59.4214 52.9366 59.5448 52.7298 59.6721 52.5263C59.5598 52.5796 59.4483 52.6354 59.3368 52.6912C59.2672 52.8077 59.1992 52.9251 59.1336 53.0432C56.4085 57.9206 56.2733 64.641 58.7619 71.482C60.338 75.8129 62.5973 79.5595 65.1278 82.7556C64.3164 82.8499 63.5051 82.9427 62.6969 83.0354C59.7797 83.3694 56.762 83.7148 53.8329 84.1062C52.7638 84.249 51.6764 84.4156 50.5938 84.6248C48.2744 79.5447 45.7265 74.5894 42.4329 70.3389C42.3854 70.3873 42.338 70.4349 42.2905 70.4833C45.5557 74.701 48.0878 79.6202 50.3938 84.6642C45.6743 85.598 41.0917 87.354 38.645 91.4403C36.3596 95.2568 36.362 100.532 38.6513 107.12C38.7304 107.348 38.8118 107.572 38.8949 107.795H39.1068C39.0159 107.551 38.9257 107.304 38.8379 107.05C36.5699 100.524 36.562 95.3085 38.8134 91.5478C41.2309 87.5099 45.789 85.7777 50.4823 84.8554C51.3016 86.6524 52.0924 88.465 52.8784 90.2661L52.9638 90.4622C55.6944 96.7165 58.5184 102.752 62.2153 107.796H62.462C58.7311 102.743 55.8913 96.6714 53.1433 90.3777L53.0579 90.1816C52.2782 88.3961 51.4938 86.5991 50.6824 84.8168C51.7436 84.6133 52.8104 84.45 53.859 84.3105C56.7865 83.9191 59.8026 83.5737 62.7198 83.2397C63.5715 83.1421 64.4256 83.0444 65.2796 82.9451C68.9252 87.4976 73.1124 90.9177 76.6283 93.3079C78.5238 94.597 80.4818 95.7663 82.4627 96.8314C79.0995 99.4711 75.8288 102.248 72.6348 104.959C71.5285 105.898 70.4103 106.846 69.2826 107.795H69.5958C70.6594 106.9 71.7151 106.004 72.7597 105.118C75.9759 102.388 79.2703 99.5909 82.6573 96.9364C84.4294 97.8825 86.2182 98.7449 87.9983 99.5351C85.5634 101.142 83.5785 103.631 82.3789 106.652C82.2286 107.03 82.0974 107.412 81.9764 107.796H82.1844C82.299 107.439 82.4216 107.083 82.5616 106.73C83.7644 103.7 85.7659 101.214 88.2197 99.6328C93.1953 101.826 98.0848 103.454 102.287 104.744L102.445 104.792C104.216 105.336 106.027 105.893 107.629 106.786C107.674 106.733 107.719 106.681 107.763 106.627C106.135 105.711 104.298 105.146 102.501 104.596L102.343 104.547C98.1844 103.27 93.3503 101.662 88.4284 99.5015C89.0698 99.1052 89.7412 98.7712 90.4355 98.5037C95.5645 96.5311 101.253 97.789 106.271 98.8984H106.268Z" fill="white"/>
<path d="M8.92662 85.6103C9.79965 89.3192 9.41058 93.3243 7.85747 96.5992C6.84051 98.7441 5.37202 100.686 3.56348 102.354C3.59906 102.412 3.63623 102.469 3.67261 102.527C5.5104 100.837 7.00263 98.8672 8.03461 96.6894C9.60749 93.3719 10.0021 89.3159 9.11799 85.5611C8.42763 82.6276 7.039 80.1429 5.11975 78.3451C5.07705 78.3976 5.03435 78.4501 4.99244 78.5026C6.87926 80.2726 8.24496 82.7203 8.92583 85.6103H8.92662Z" fill="white"/>
<path d="M53.6709 38.6285C55.3932 40.4543 56.165 43.5313 55.2153 46.3672C54.2956 49.1136 52.2799 51.3882 49.8585 52.8512C47.91 54.0279 45.3684 54.677 43.4523 53.4445C42.0202 52.5238 41.2776 50.7169 41.2365 48.97C41.1954 47.2222 41.7616 45.5195 42.4614 43.9293C43.4483 41.6884 44.7761 39.5147 46.7546 38.1518C49.4813 36.2727 52.015 36.8733 53.6709 38.6285Z" fill="#F7F0E3"/>
<path d="M30.8412 6.6104H16.5801V0H30.8412V6.6104ZM16.8766 6.30269H30.5447V0.307709H16.8766V6.30269Z" fill="#E9DDCA"/>
<path d="M21.5639 12.9328H7.30273V6.32157H21.5639V12.932V12.9328ZM7.59928 12.6251H21.2673V6.62928H7.59928V12.6243V12.6251Z" fill="#E9DDCA"/>
<path d="M111.984 19.9764C111.06 16.7902 109.436 13.8649 107.111 11.1907C104.781 8.51656 101.604 6.30844 97.5788 4.56229C93.5536 2.81615 88.4396 1.94308 82.2366 1.94308C77.2879 1.94308 72.245 2.63563 67.1072 4.02073C61.9647 5.41075 57.5038 7.38747 53.7207 9.95663L58.6457 23.9865L56.0061 26.2053L59.8343 27.3729C63.6127 25.3207 67.0558 23.8306 70.162 22.9026C73.2635 21.9794 76.5595 21.5175 80.054 21.5175C83.5486 21.5175 86.1866 22.3905 87.9809 24.1367C89.7752 25.8877 90.6704 27.99 90.6704 30.4591C90.6704 33.4393 89.7468 36.084 87.9098 38.3971C86.0633 40.7103 84.027 43.048 81.7962 45.4112C80.2478 47.0523 78.7421 48.7476 77.2879 50.4938C75.8344 52.2448 74.5462 54.1165 73.4335 56.1236C72.3162 58.1258 71.421 60.283 70.7441 62.5961C70.0624 64.9093 69.7263 67.5031 69.7263 70.3783C69.7263 71.3064 69.7453 72.41 69.7975 73.695C69.8062 73.9321 69.818 74.1627 69.8315 74.3908H66.2128L70.162 77.1618H89.364C89.2644 76.5448 89.2169 75.8268 89.2169 75.0046V73.1534C89.2169 71.4073 89.5578 69.6866 90.2347 67.9905C90.9116 66.2944 91.7641 64.6787 92.7826 63.1336C93.8004 61.5934 94.9375 60.1279 96.2012 58.7436C97.4609 57.3536 98.6732 56.044 99.8381 54.8099C101.386 53.1688 102.987 51.4235 104.635 49.5715C106.283 47.7203 107.741 45.7731 109.001 43.716C110.261 41.6588 111.302 39.4261 112.126 37.0079C112.95 34.5947 113.367 31.95 113.367 29.0699C113.367 26.1897 112.903 23.1643 111.984 19.9781V19.9764Z" fill="#E49B31"/>
<path d="M75.989 20.5385C72.5356 20.5385 69.2783 20.9849 66.2132 21.8785C63.1434 22.777 59.7414 24.2187 56.0065 26.2053L49.9648 9.35024C53.7037 6.86395 58.1124 4.95041 63.1948 3.60552C68.2724 2.26556 73.256 1.59516 78.1463 1.59516C84.2765 1.59516 89.3312 2.44033 93.3089 4.12986C97.2866 5.81938 100.427 7.95611 102.73 10.5441C105.028 13.1322 106.632 15.9631 107.545 19.0467C108.453 22.1304 108.911 25.0631 108.911 27.8456C108.911 30.6281 108.499 33.1923 107.685 35.5276C106.871 37.8678 105.841 40.0292 104.597 42.0199C103.352 44.0105 101.91 45.8945 100.282 47.6866C98.6539 49.4787 97.0715 51.1682 95.5413 52.756C94.3899 53.9507 93.1919 55.2177 91.9472 56.5634C90.6977 57.9034 89.5748 59.3213 88.5681 60.8122C87.5622 62.3081 86.7192 63.8713 86.0502 65.5124C85.3812 67.1535 85.0443 68.8192 85.0443 70.5087V72.3008C85.0443 73.0976 85.091 73.7918 85.1891 74.3892H66.2124C66.0155 73.3938 65.8993 72.277 65.8518 71.0339C65.8004 69.7908 65.7815 68.7224 65.7815 67.8239C65.7815 65.0414 66.1136 62.5313 66.7873 60.292C67.4564 58.0535 68.3412 55.9652 69.4452 54.0279C70.5452 52.0856 71.8176 50.2747 73.2544 48.5794C74.6913 46.8899 76.1796 45.2479 77.7097 43.6601C79.9137 41.3733 81.9262 39.1102 83.7514 36.8717C85.567 34.6332 86.4796 32.0739 86.4796 29.1896C86.4796 26.8002 85.5955 24.766 83.8218 23.0716C82.048 21.3821 79.4368 20.5369 75.9882 20.5369L75.989 20.5385Z" fill="#FBC343"/>
<path d="M90.6771 96.5015C90.6771 100.094 89.5565 102.866 87.3146 104.821C85.0735 106.781 82.5399 107.756 79.7112 107.756C76.8825 107.756 74.3457 106.781 72.1046 104.821C69.8666 102.866 68.7461 100.094 68.7461 96.5015C68.7461 92.9092 69.8666 90.1414 72.1046 88.1819C75.5548 85.1606 80.6593 84.4878 84.6987 86.6081C88.2834 88.4896 90.6771 92.311 90.6771 96.5015Z" fill="#E49B31"/>
<path d="M86.9213 96.5015C86.9213 100.094 85.8007 102.866 83.5588 104.821C81.3177 106.781 78.784 107.756 75.9554 107.756C73.1267 107.756 70.5898 106.781 68.3487 104.821C66.1108 102.866 64.9902 100.094 64.9902 96.5015C64.9902 92.9091 66.1108 90.1414 68.3487 88.1819C70.5898 86.2265 73.1235 85.2468 75.9554 85.2468C78.7872 85.2468 81.3169 86.2265 83.5588 88.1819C85.7999 90.1414 86.9213 92.9132 86.9213 96.5015Z" fill="#FBC343"/>
<path d="M30.076 45.5801C30.2865 44.4153 29.5471 43.294 28.4246 43.0756C27.3021 42.8572 26.2215 43.6244 26.011 44.7892C25.8005 45.954 26.5399 47.0752 27.6624 47.2936C28.7849 47.512 29.8655 46.7449 30.076 45.5801Z" fill="#D3DFFF"/>
<path d="M31.0614 49.6029C31.1797 48.9476 30.7602 48.3163 30.1244 48.1927C29.4887 48.0691 28.8774 48.5001 28.7591 49.1554C28.6408 49.8106 29.0603 50.4419 29.6961 50.5655C30.3318 50.6891 30.9431 50.2581 31.0614 49.6029Z" fill="#D3DFFF"/>
<path d="M28.6975 40.351C31.8772 37.0517 31.8772 31.7024 28.6975 28.4031C25.5179 25.1037 20.3627 25.1037 17.183 28.4031C14.0034 31.7024 14.0034 37.0517 17.183 40.351C20.3627 43.6503 25.5179 43.6503 28.6975 40.351Z" fill="#D3DFFF"/>
<path d="M19.8137 35.4415C20.3802 35.4415 20.8394 34.965 20.8394 34.3772C20.8394 33.7894 20.3802 33.3129 19.8137 33.3129C19.2473 33.3129 18.7881 33.7894 18.7881 34.3772C18.7881 34.965 19.2473 35.4415 19.8137 35.4415Z" fill="white"/>
<path d="M22.9397 35.4415C23.5062 35.4415 23.9654 34.965 23.9654 34.3772C23.9654 33.7894 23.5062 33.3129 22.9397 33.3129C22.3733 33.3129 21.9141 33.7894 21.9141 34.3772C21.9141 34.965 22.3733 35.4415 22.9397 35.4415Z" fill="white"/>
<path d="M26.0667 35.4415C26.6331 35.4415 27.0923 34.965 27.0923 34.3772C27.0923 33.7894 26.6331 33.3129 26.0667 33.3129C25.5002 33.3129 25.041 33.7894 25.041 34.3772C25.041 34.965 25.5002 35.4415 26.0667 35.4415Z" fill="white"/>
<path d="M17.1072 103.527L17.8679 106.571C18.0664 107.364 18.8058 107.901 19.6243 107.842C22.1184 107.667 27.3013 107.033 30.2762 104.757L29.4309 100.371C25.3409 100.132 21.5166 100.368 18.204 101.524C17.3745 101.814 16.8953 102.676 17.108 103.526L17.1072 103.527Z" fill="#102048"/>
<path d="M21.8743 105.949C21.8308 105.949 21.7913 105.92 21.7794 105.875L20.7577 102.08C20.7427 102.026 20.7735 101.969 20.8265 101.953C20.8795 101.939 20.9341 101.97 20.9483 102.025L21.97 105.82C21.985 105.875 21.9542 105.931 21.9012 105.946C21.8925 105.949 21.883 105.95 21.8743 105.95V105.949Z" fill="white"/>
<path d="M24.0823 105.437C24.0388 105.437 23.9993 105.407 23.9874 105.362L22.9657 101.567C22.9507 101.513 22.9815 101.456 23.0345 101.44C23.0875 101.425 23.1421 101.457 23.1563 101.512L24.178 105.307C24.193 105.362 24.1622 105.418 24.1092 105.433C24.1005 105.436 24.091 105.437 24.0823 105.437V105.437Z" fill="white"/>
<path d="M26.645 87.0766L17.1396 90.0035L24.199 100.041L34.3338 100.877L48.3118 94.7431L43.0001 86.4489L26.645 87.0766Z" fill="#FBC343"/>
<path d="M38.3643 88.4708C59.2396 82.0589 62.5942 101.203 30.0238 104.687C28.8732 103.344 27.5289 101.014 26.9951 99.065L44.1948 90.8176L38.3643 88.4708Z" fill="#FBC343"/>
<path d="M39.251 102.19C38.2744 101.866 37.3389 101.225 37.3389 101.225L33.9844 102.318L34.753 106.105L38.238 106.839C39.3001 104.824 39.3618 103.169 39.251 102.19Z" fill="#F9B384"/>
<path d="M27.0696 99.1979L26.9209 98.932C30.5095 96.7682 39.7001 91.57 47.5313 90.0364L47.5867 90.3392C39.8013 91.8637 30.6455 97.0423 27.0704 99.1979H27.0696Z" fill="#E49B31"/>
<path d="M26.6454 87.0766C7.21486 83.243 2.18226 102.62 34.7534 106.105C35.904 104.761 36.8055 103.174 37.3393 101.225C32.3359 97.7521 26.7419 94.4501 20.6117 91.305L26.6462 87.0766H26.6454Z" fill="#FBC343"/>
<path d="M37.2589 101.355C36.3345 100.745 35.3713 100.1 34.352 99.4162C29.2332 95.987 23.4319 92.1001 18.5029 89.8838L18.6208 89.6015C23.5719 91.8276 29.3842 95.722 34.5125 99.1577C35.5318 99.8404 36.4942 100.485 37.4179 101.096L37.2589 101.355Z" fill="#E49B31"/>
<path d="M12.3902 96.6837L12.1309 96.5352C12.86 95.1649 14.0288 94.2409 15.6032 93.7888L15.6823 94.085C14.1664 94.5207 13.0893 95.3708 12.3902 96.6837Z" fill="#E49B31"/>
<path d="M52.9444 95.5169C52.2454 94.204 51.1683 93.3539 49.6523 92.9182L49.7314 92.6219C51.3059 93.0741 52.4747 93.9988 53.2038 95.3683L52.9444 95.5169Z" fill="#E49B31"/>
<path d="M32.9335 105.934L32.7168 105.724C34.2715 103.996 35.226 102.173 35.6356 100.149L35.9258 100.212C35.5051 102.292 34.5261 104.164 32.9343 105.934H32.9335Z" fill="#E49B31"/>
<path d="M48.9416 101.063C46.4522 99.467 41.626 102.225 40.4145 102.364C40.0611 102.405 39.653 102.325 39.2513 102.191C39.362 103.17 39.3003 104.824 38.2383 106.84L38.8306 106.964C38.8306 106.964 42.9229 108.521 47.2644 107.615C51.2713 106.779 50.8989 102.318 48.9416 101.064V101.063Z" fill="#102048"/>
<path d="M45.548 106.283C45.5385 106.283 45.5282 106.281 45.518 106.278C45.4658 106.26 45.4373 106.203 45.4531 106.149C45.7489 105.177 45.8778 103.265 45.0213 101.981C44.9905 101.934 45.0016 101.87 45.0466 101.838C45.0917 101.806 45.1534 101.818 45.1842 101.865C46.081 103.21 45.9497 105.2 45.6421 106.21C45.6287 106.254 45.5899 106.282 45.548 106.282V106.283Z" fill="white"/>
<path d="M43.5959 106.667C43.5864 106.667 43.5761 106.666 43.5658 106.662C43.5136 106.645 43.4851 106.588 43.501 106.534C43.7967 105.562 43.9256 103.65 43.0692 102.366C43.0384 102.319 43.0494 102.255 43.0945 102.223C43.1396 102.191 43.2013 102.203 43.2321 102.25C44.1288 103.594 43.9976 105.585 43.69 106.595C43.6765 106.639 43.6378 106.667 43.5959 106.667V106.667Z" fill="white"/>
<path d="M23.208 62.094C23.208 62.094 28.1014 57.7762 27.9203 56.9556C27.7906 56.3689 26.4044 57.2289 26.4044 57.2289C26.4044 57.2289 28.3481 54.8353 28.2493 54.5448C28.0729 54.0254 26.7278 54.9937 26.7278 54.9937C26.7278 54.9937 27.6364 53.6365 27.2023 53.4149C26.7681 53.1934 25.8208 54.0304 25.8208 54.0304C25.8208 54.0304 26.3743 53.2771 26.1142 53.0793C25.854 52.8816 24.7326 53.6948 24.7326 53.6948C24.7326 53.6948 25.1352 52.7445 24.2803 53.1048C23.4255 53.465 17.4297 59.1744 17.4297 59.1744L23.208 62.094Z" fill="#F9B384"/>
<path d="M25.2106 56.972C25.1868 56.972 25.1631 56.963 25.1441 56.945C24.3043 56.149 23.9334 55.9554 23.0074 55.6592C22.9552 55.6427 22.926 55.5853 22.9418 55.5312C22.9576 55.477 23.013 55.4466 23.0652 55.463C24.0252 55.7691 24.4087 55.9693 25.2778 56.7932C25.3181 56.8317 25.3213 56.8966 25.2841 56.9384C25.2643 56.9606 25.2382 56.972 25.2114 56.972H25.2106Z" fill="#E28B6D"/>
<path d="M23.737 59.3147C23.7322 59.3147 23.7275 59.3147 23.7235 59.3139C23.6698 59.3057 23.6318 59.254 23.6397 59.1982C23.7362 58.4843 23.9529 58.038 24.3016 57.8345C24.6005 57.6605 24.9888 57.6777 25.457 57.8878C25.5068 57.9099 25.5305 57.9707 25.5084 58.0224C25.487 58.0741 25.4285 58.0987 25.3787 58.0757C24.9706 57.8927 24.6409 57.8714 24.3989 58.0133C24.111 58.1816 23.9212 58.5894 23.8358 59.2269C23.8287 59.2778 23.7868 59.3156 23.7378 59.3156L23.737 59.3147Z" fill="#E28B6D"/>
<path d="M23.506 54.9978C23.4799 54.9978 23.4538 54.9871 23.4341 54.9658C23.3969 54.9248 23.3985 54.86 23.438 54.8206L24.6661 53.6201C24.7056 53.5807 24.7681 53.5832 24.8061 53.6242C24.8432 53.6652 24.8417 53.73 24.8021 53.7694L23.574 54.9699C23.555 54.9888 23.5305 54.9978 23.506 54.9978Z" fill="#E28B6D"/>
<path d="M24.6421 55.4081C24.6176 55.4081 24.5931 55.3982 24.5733 55.3794C24.5338 55.34 24.533 55.2751 24.5702 55.2341L25.75 53.959C25.788 53.9179 25.8505 53.9163 25.89 53.9557C25.9295 53.9951 25.9303 54.0599 25.8932 54.1009L24.7133 55.3761C24.6935 55.3974 24.6682 55.4072 24.6421 55.4072V55.4081Z" fill="#E28B6D"/>
<path d="M25.8035 56.1261C25.779 56.1261 25.7553 56.117 25.7363 56.0982C25.6967 56.0596 25.6944 55.9948 25.7315 55.9529L26.6568 54.9231C26.6939 54.8821 26.7564 54.8796 26.7967 54.9182C26.8363 54.9568 26.8386 55.0216 26.8015 55.0634L25.8762 56.0932C25.8565 56.1146 25.8304 56.1261 25.8035 56.1261Z" fill="#E28B6D"/>
<path d="M41.6938 90.9734L23.8022 91.6914L21.8252 74.7675C21.8252 74.7675 27.8146 68.8726 30.119 66.7014L34.0097 66.4946C46.0795 72.1876 44.1034 79.2978 41.6938 90.9734Z" fill="#3A6BEA"/>
<path d="M34.0098 66.4946C34.0098 66.4946 47.8186 67.7197 52.1719 77.5368C56.4319 87.1431 38.9261 90.5632 38.9261 90.5632L34.0098 66.4946Z" fill="#3A6BEA"/>
<path d="M18.2247 68.5985L23.9311 61.3932L18.5948 58.038C16.3687 59.6438 12.0645 63.2813 8.41654 67.4005C7.61152 68.3097 6.98205 69.3715 6.66573 70.5408C6.39528 71.5386 6.34625 72.5241 6.49808 73.489C6.89427 76.0049 8.80087 77.9455 11.3464 78.2548C13.5203 78.519 21.8244 77.8445 28.5461 75.7932L30.5231 67.8756C29.507 67.2774 21.9573 67.1732 18.2247 68.5985Z" fill="#3A6BEA"/>
<g opacity="0.8">
<path opacity="0.8" d="M45.5334 70.3906C45.5634 70.3832 45.5927 70.3767 45.6227 70.3693C45.5602 70.3307 45.4978 70.2938 45.4353 70.256C44.4231 70.4981 43.3792 70.7451 42.3496 70.8739C41.7312 70.951 39.6641 71.093 39.0607 69.6644C38.7602 68.9538 38.988 68.1628 39.3272 67.6081C39.2774 67.5933 39.2284 67.5786 39.1794 67.5638C38.8314 68.1513 38.6076 68.976 38.9247 69.726C39.5692 71.2522 41.7233 71.1078 42.3678 71.0265C43.4267 70.8944 44.4982 70.6384 45.5334 70.3906Z" fill="white"/>
<path opacity="0.8" d="M51.9784 81.4624C51.3189 81.1982 50.6372 80.9241 49.9208 80.9947C48.6642 81.1177 47.5888 82.4077 47.5231 83.8691C47.4788 84.866 47.8458 85.9106 48.5448 86.8288C48.5867 86.8017 48.6286 86.7738 48.6706 86.7468C47.9865 85.854 47.6275 84.8406 47.671 83.8765C47.7327 82.4881 48.7481 81.2638 49.9342 81.1481C50.6151 81.0825 51.2517 81.3368 51.9247 81.606C52.1651 81.702 52.4094 81.7996 52.6577 81.8817C52.6704 81.8325 52.683 81.7824 52.6941 81.7323C52.4521 81.6519 52.2133 81.5567 51.9776 81.4624H51.9784Z" fill="white"/>
<path opacity="0.8" d="M17.1243 76.5694C16.2623 75.8293 14.9227 75.6315 13.4495 76.027C12.1368 76.379 11.0107 77.0773 10.2373 78.0005C10.2879 78.0177 10.3377 78.0366 10.3891 78.0521C11.142 77.1758 12.2261 76.5136 13.4867 76.1755C14.9125 75.7923 16.2046 75.9794 17.0294 76.6876C17.4216 77.024 17.6992 77.4613 17.9009 77.9323C17.9515 77.9266 18.0029 77.92 18.0543 77.9143C17.8431 77.4072 17.549 76.9337 17.1243 76.5686V76.5694Z" fill="white"/>
<path opacity="0.8" d="M9.33008 66.3937C10.9457 65.9768 12.5217 65.3918 13.976 64.5228C14.5256 64.1946 15.1456 63.7761 15.5821 63.1615C16.0463 62.5075 16.2005 61.7288 15.9949 61.0789C15.9142 60.8237 15.7711 60.5997 15.5924 60.4209C15.5544 60.4529 15.5164 60.4857 15.4785 60.5177C15.6453 60.6826 15.779 60.8902 15.8541 61.1274C16.0447 61.7305 15.8992 62.4566 15.4635 63.0704C15.0435 63.662 14.4386 64.0699 13.9024 64.3899C12.5312 65.2096 11.0477 65.7766 9.52382 66.1861C9.45898 66.255 9.39492 66.3247 9.33087 66.3937H9.33008Z" fill="white"/>
</g>
<path d="M35.2733 62.7324L35.271 62.9949L35.2306 67.0756L35.2259 67.5179C35.2188 68.2096 34.9451 68.8365 34.5039 69.2919C34.065 69.744 33.4608 70.0279 32.7918 70.0329C31.4435 70.0402 30.3404 68.9169 30.3277 67.5154L30.2803 62.4722L35.2733 62.7324Z" fill="#F9B384"/>
<path d="M35.2705 62.9949L35.2302 67.0756C33.0445 66.1524 32.1445 63.6973 32.1445 63.6973L35.2697 62.9949H35.2705Z" fill="#102048"/>
<path d="M36.1347 55.8742C36.9176 56.8498 39.2054 62.3762 36.8868 64.2619C34.278 66.3838 30.3074 62.8965 30.3074 62.8965L29.7744 56.4592L33.2207 55.5164L36.1347 55.8742Z" fill="#F9B384"/>
<path d="M28.019 55.5197C28.019 55.5197 20.3744 59.6569 26.6074 71.5821C27.4077 73.114 29.1815 73.782 30.6982 73.0353C32.3256 72.2336 32.9417 70.1707 32.0576 68.5419C31.0382 66.6628 30.0537 64.2422 30.4744 62.4419L28.019 55.5205V55.5197Z" fill="#102048"/>
<path d="M30.2031 58.9947C31.0107 58.1568 31.0107 56.7981 30.2031 55.9602C29.3956 55.1222 28.0862 55.1222 27.2786 55.9602C26.4711 56.7981 26.4711 58.1568 27.2786 58.9947C28.0862 59.8327 29.3956 59.8327 30.2031 58.9947Z" fill="#FBC343"/>
<path d="M31.2848 60.0557C31.061 58.7174 30.925 57.7992 32.229 57.1091C32.229 57.1091 36.8243 57.9764 37.7013 56.1769C38.5783 54.3783 37.2418 51.5391 34.4432 53.5109C27.2786 52.0586 26.3178 59.0161 28.4901 61.3349L30.634 60.9936C31.0657 60.9247 31.3591 60.5013 31.2848 60.0549V60.0557Z" fill="#102048"/>
<path d="M34.8424 60.3765C35.0109 60.3765 35.1476 60.2347 35.1476 60.0598C35.1476 59.8849 35.0109 59.7431 34.8424 59.7431C34.6738 59.7431 34.5371 59.8849 34.5371 60.0598C34.5371 60.2347 34.6738 60.3765 34.8424 60.3765Z" fill="#102048"/>
<path d="M36.9107 59.3197C37.0793 59.3197 37.216 59.1779 37.216 59.0029C37.216 58.828 37.0793 58.6862 36.9107 58.6862C36.7421 58.6862 36.6055 58.828 36.6055 59.0029C36.6055 59.1779 36.7421 59.3197 36.9107 59.3197Z" fill="#102048"/>
<path d="M36.6989 61.0354C36.6775 61.0354 36.6562 61.0272 36.6396 61.0108C36.6048 60.9764 36.6032 60.9197 36.6364 60.8836C36.759 60.7499 36.8934 60.562 36.8365 60.4249C36.778 60.283 36.5304 60.2223 36.4166 60.2223C36.173 60.2223 36.056 59.7726 36.0346 59.6824C36.0235 59.6339 36.052 59.5855 36.0987 59.574C36.1453 59.5617 36.192 59.5921 36.2031 59.6405C36.2473 59.8309 36.3486 60.0434 36.4166 60.0434C36.5336 60.0434 36.8902 60.1008 36.9954 60.3552C37.0705 60.5365 36.9923 60.7564 36.7613 61.0084C36.7447 61.0272 36.7218 61.0363 36.6989 61.0363V61.0354Z" fill="#102048"/>
<path d="M36.7142 62.2376C36.6976 62.2376 36.681 62.2326 36.666 62.222C36.0911 61.8191 35.5098 62.1572 35.5043 62.1604C35.4632 62.185 35.4102 62.1703 35.3865 62.1276C35.3628 62.0849 35.377 62.03 35.4181 62.0054C35.4458 61.9889 36.099 61.609 36.7632 62.0735C36.8028 62.1014 36.8131 62.1572 36.7862 62.1982C36.7696 62.2236 36.7419 62.2376 36.7142 62.2376Z" fill="#102048"/>
<path d="M34.7088 58.6862C34.8827 59.0259 34.5799 59.094 34.2248 59.2893C33.8697 59.4846 33.5068 59.5568 33.4237 59.3943C33.3407 59.2327 33.5613 58.943 33.9164 58.7469C34.2715 58.5508 34.5743 58.4228 34.7088 58.6854V58.6862Z" fill="#102048"/>
<path d="M36.0027 58.0741C36.0794 58.3769 36.2969 58.2448 36.6132 58.1586C36.9295 58.0724 37.1857 57.9075 37.1494 57.7631C37.113 57.6186 36.8267 57.5711 36.5096 57.6572C36.1925 57.7434 35.9426 57.8402 36.0019 58.0749L36.0027 58.0741Z" fill="#102048"/>
<path opacity="0.4" d="M34.0456 62.2203C34.4112 61.8703 34.4342 61.279 34.0969 60.8996C33.7596 60.5202 33.1898 60.4963 32.8242 60.8463C32.4585 61.1963 32.4355 61.7876 32.7728 62.167C33.1101 62.5464 33.6799 62.5702 34.0456 62.2203Z" fill="#EB5D60"/>
<path d="M31.1083 62.4242C31.5201 61.8706 31.3625 61.0284 30.7564 60.543C30.1503 60.0576 29.3252 60.1129 28.9135 60.6665C28.5017 61.22 28.6593 62.0623 29.2654 62.5476C29.8715 63.033 30.6966 62.9777 31.1083 62.4242Z" fill="#F9B384"/>
<path d="M30.5477 62.0111C30.5003 62.0111 30.4615 61.9709 30.4615 61.9216C30.4615 61.6566 30.3374 61.4121 30.1286 61.266C29.9507 61.1413 29.7379 61.1126 29.56 61.1872C29.5157 61.2053 29.4651 61.184 29.4469 61.138C29.4287 61.0921 29.4501 61.0396 29.4944 61.0207C29.7253 60.923 29.9981 60.9583 30.2243 61.1167C30.4805 61.2956 30.6339 61.5959 30.6339 61.9208C30.6339 61.9701 30.5952 62.0103 30.5477 62.0103V62.0111Z" fill="#102048"/>
<path d="M18.1521 68.5264L15.0312 72.0297L15.1764 72.1689L18.2973 68.6657L18.1521 68.5264Z" fill="#102048"/>
<path d="M40.1407 83.5843L40.083 83.3882C42.3549 82.6694 44.5605 81.8103 46.5588 79.2173L46.713 79.3453C44.6791 81.9843 42.4435 82.8565 40.1407 83.5852V83.5843Z" fill="#102048"/>
<path d="M41.522 75.6405H22.1935C21.4984 75.6405 20.9346 76.2732 20.9346 77.0535V91.3731C20.9346 92.1534 21.4984 92.7861 22.1935 92.7861H41.522C42.2171 92.7861 42.781 92.1534 42.781 91.3731V77.0535C42.781 76.2732 42.2171 75.6405 41.522 75.6405Z" fill="#D3DFFF"/>
<path d="M32.8789 83.3078C32.9524 83.3078 33.0117 83.3743 33.0117 83.4572V84.9686C33.0117 85.0507 32.9524 85.118 32.8789 85.118H30.8378C30.7643 85.118 30.705 85.0515 30.705 84.9686V83.4572C30.705 83.3751 30.7643 83.3078 30.8378 83.3078H32.8789ZM32.8789 82.8975H30.8378C30.5468 82.8975 30.3096 83.1486 30.3096 83.4572V84.9686C30.3096 85.2771 30.5468 85.5282 30.8378 85.5282H32.8789C33.1699 85.5282 33.4071 85.2771 33.4071 84.9686V83.4572C33.4071 83.1486 33.1699 82.8975 32.8789 82.8975Z" fill="#1F3C88"/>
<path d="M116.537 107.59H0V108H116.537V107.59Z" fill="#102048"/>
</g>
<defs>
<clipPath id="clip0_5663_8944">
<rect width="116.537" height="108" fill="white"/>
</clipPath>
</defs>
</svg>
