<svg width="162" height="136" viewBox="0 0 162 136" fill="none" xmlns="http://www.w3.org/2000/svg">
<path d="M92.3262 61.9083C92.1949 64.299 92.5211 66.7177 93.2785 68.9678C93.4585 69.5062 93.6685 70.0366 93.9722 70.5026C94.6021 71.467 95.652 72.0978 96.7469 72.1741C99.3753 72.3589 102.131 72.7768 104.688 72.1058C107.249 71.4348 121.314 66.099 122.3 65.6168L131.546 45.4508C128.986 44.5709 124.82 45.1414 120.856 47.7933C118.577 49.3201 106.619 54.4269 104.265 55.0898C103.567 48.4602 103.024 24.0352 102.656 22.9825C102.289 21.9298 99.7165 21.1945 98.6929 20.9494C97.6693 20.7043 96.0945 21.5722 95.5583 22.5405C94.2084 24.9714 92.4499 25.0799 92.4761 27.9085L92.3224 61.9083H92.3262Z" fill="#F0A768"/>
<path d="M92.48 27.9086C92.4238 23.9549 92.1763 20.7808 91.8951 16.8352C91.8426 16.124 92.165 15.1074 93.1249 14.9829C93.8748 14.8865 94.6172 15.2119 94.9472 15.8508C95.2809 16.4936 95.3222 17.2289 95.3484 17.9441C95.4609 20.825 95.7909 23.7942 95.6596 26.6711" fill="#F0A768"/>
<path d="M96.0715 21.8254C96.0565 19.5271 96.0453 17.2289 96.0303 14.9306C96.0303 14.348 96.0265 13.7493 96.2065 13.1989C96.3902 12.6484 96.7952 12.1462 97.3276 12.0377C97.9351 11.9131 98.55 12.335 98.8725 12.8975C99.1949 13.4641 99.2774 14.1431 99.3149 14.806C99.4874 17.7311 98.9325 20.6883 99.3149 23.5933" fill="#F0A768"/>
<path d="M99.952 24.2081C99.952 22.3638 99.952 20.5196 99.9482 18.6714C99.9482 17.4941 100.019 16.3048 100.196 15.1476C100.477 13.3516 103.237 12.7047 103.364 16.8633C103.495 21.0781 103.454 25.8635 103.405 30.0783" fill="#F0A768"/>
<path d="M103.017 28.2018C103.403 27.5268 104.513 26.3697 105.147 25.9598C105.465 25.7549 105.829 25.5862 106.204 25.6143C107.025 25.6786 107.535 26.6991 107.441 27.575C107.348 28.4509 106.834 29.2023 106.354 29.9175C104.97 31.9907 103.632 34.4497 102.368 36.4024" fill="#F0A768"/>
<path d="M132.225 45.033C128.768 44.4665 125.168 44.9406 121.944 46.387C120.185 47.1746 114.782 49.2277 113.894 49.8746C114.756 56.3114 115.967 62.6918 117.516 68.9799C118.693 68.6906 122.124 67.7223 122.889 67.5817C124.782 67.2401 126.672 66.8946 128.577 66.6575C128.596 58.9592 129.84 52.2934 132.225 45.033Z" fill="#F4F0D3"/>
<path d="M116.2 49.0027C117.145 55.4555 118.484 61.84 120.208 68.104" stroke="#A55F38" stroke-width="1.32" stroke-linecap="round" stroke-linejoin="round"/>
<path d="M153.173 51.9962C151.689 50.1399 142.937 45.4509 142.937 45.4509L143.515 37.845L130.991 40.762C130.991 42.9719 130.721 44.0326 130.721 46.2425C128.798 49.5693 126.698 52.5386 124.681 55.8011C125.877 56.9302 127.35 57.6574 128.798 58.3686C132.667 60.2691 136.54 62.1696 140.41 64.0701C140.687 64.2067 140.987 64.3473 141.291 64.291C141.707 64.2187 141.989 63.8089 142.221 63.4312C145.003 58.9633 150.391 56.4641 153.17 51.9962H153.173Z" fill="#F0A768"/>
<path d="M149.953 22.1911C149.953 31.2917 147.516 38.3231 140.017 40.4205C131.854 42.7027 120.182 46.6724 121.269 25.0921C121.914 12.2588 128.108 8.61047 136.545 8.61047C144.981 8.61047 149.953 13.0865 149.953 22.1911Z" fill="#F0A768"/>
<path d="M121.64 24.9595C121.37 25.518 119.049 27.9569 117.991 29.3189C117.508 29.9457 117.692 30.8859 118.37 31.2556C119.589 31.9145 122.06 32.4248 122.75 32.5654" fill="#F0A768"/>
<path d="M137.562 28.9453C138.026 28.1176 139.016 27.6756 139.89 27.9046C140.764 28.1336 141.454 29.0136 141.514 29.9779" stroke="#823521" stroke-width="1.42" stroke-linecap="round" stroke-linejoin="round"/>
<path d="M123.242 26.4381C123.115 27.2136 123.22 27.8806 123.82 28.0453C124.42 28.21 124.798 27.4024 124.933 26.6912" stroke="#6D2920" stroke-width="1.42" stroke-linecap="round" stroke-linejoin="round"/>
<path d="M122.274 35.6191C123.369 36.1013 124.063 35.5709 124.663 34.478" stroke="#6D2920" stroke-width="1.42" stroke-linecap="round" stroke-linejoin="round"/>
<path d="M130.554 42.1764C131.836 42.1281 133.115 41.9313 134.363 41.5938" stroke="#6D2920" stroke-width="1.42" stroke-linecap="round" stroke-linejoin="round"/>
<path d="M125.817 7.16391C124.928 7.40097 124.054 7.7666 123.199 8.28893C120.938 9.67914 119.776 12.2265 120.26 14.9828C120.695 17.4498 122.472 19.8606 124.639 20.857C125.513 21.2588 131.051 22.0142 131.22 20.2704C130.893 23.7138 133.631 26.667 136.638 27.9286C137.107 27.5268 137.399 27.0447 137.935 26.7554C138.786 26.2973 139.769 25.9719 140.691 26.229C141.82 26.5424 142.633 27.7116 142.787 28.9492C142.941 30.1867 142.513 31.4483 141.812 32.4448C141.516 32.8667 141.171 33.2484 140.792 33.5778C140.226 34.072 143.837 38.3431 144.669 38.2467C146.529 38.0297 148.336 34.6546 149.12 33.1318C150.5 30.4438 151.512 27.4907 151.726 24.429C151.94 21.3673 150.8 15.931 148.955 13.5846C143.571 6.75006 136.555 8.60635 135.727 8.31304C132.525 7.17596 129.082 6.29603 125.82 7.16391H125.817Z" fill="#C93F2D"/>
<path d="M143.103 13.8779C143.253 11.3989 143.38 7.60192 144.422 5.38804C145.465 3.17014 147.636 1.13706 149.867 0.454011C153.369 -0.614761 157.332 1.796 158.719 5.40813C160.107 9.02026 159.121 13.3797 156.721 16.3209C154.887 18.5629 151.801 18.3419 149.046 18.7437" fill="#C93F2D"/>
<path d="M132.2 19.1896C131.54 19.9892 130.152 21.6205 129.159 21.741C127.52 21.9379 125.84 22.1347 124.247 21.6847C122.038 21.062 120.193 19.1454 119.53 16.8029C118.866 14.4605 119.402 11.7765 120.891 9.92022C122.544 7.86303 125.244 6.92284 127.756 7.28043C130.269 7.63803 132.563 9.18494 134.168 11.2903" stroke="#C93F2D" stroke-width="1.42" stroke-miterlimit="10"/>
<path d="M131.183 19.8848C130.373 22.2513 131.16 25.1402 133.039 26.663C134.183 27.5912 135.952 27.9407 136.976 26.8679" stroke="#C93F2D" stroke-width="1.42" stroke-miterlimit="10"/>
<path d="M144.589 15.3807C143.34 12.2668 143.265 8.18053 144.161 4.95814C145.282 0.92815 149.002 -0.63081 152.538 0.771451C153.351 1.09289 154.113 1.55897 154.776 2.15764C156.613 3.80901 157.66 6.42469 157.51 8.99215" stroke="#C93F2D" stroke-width="1.32" stroke-miterlimit="10"/>
<path d="M120.718 16.0396C120.481 13.5886 120.294 10.9207 121.55 8.8595C121.977 8.15636 122.555 7.56974 123.185 7.0675C125.389 5.31568 128.318 4.6487 130.999 5.28755C133.68 5.92641 136.068 7.86305 137.369 10.4506" stroke="#C93F2D" stroke-width="1.42" stroke-miterlimit="10"/>
<path d="M155.744 1.99692C154.521 1.60718 153.179 1.78799 152.002 2.31434C150.824 2.84069 149.793 3.69249 148.875 4.64072C146.827 6.74612 145.189 9.63502 145.477 12.6605" stroke="#A32A21" stroke-width="1.32" stroke-linecap="round" stroke-linejoin="round"/>
<path d="M155.978 2.3103C157.028 5.05054 156.597 8.27694 155.262 10.8725C153.927 13.4681 151.779 15.4932 149.432 17.0642C149.379 17.1003 149.308 17.1365 149.255 17.0923C149.203 17.0481 149.293 16.9436 149.315 17.0079" stroke="#A32A21" stroke-width="1.32" stroke-linecap="round" stroke-linejoin="round"/>
<path d="M147.351 14.5127C149.27 9.96844 151.921 5.78175 155.146 2.1857C155.281 2.03301 155.502 1.87631 155.652 2.00891" stroke="#A32A21" stroke-width="1.32" stroke-linecap="round" stroke-linejoin="round"/>
<path d="M149.372 16.9758C151.288 16.8553 153.347 16.6785 154.824 15.3606C155.24 14.987 155.593 14.5369 155.911 14.0628C157.017 12.4195 157.745 10.4828 158.007 8.47388" stroke="#A32A21" stroke-width="1.32" stroke-linecap="round" stroke-linejoin="round"/>
<path d="M129.342 21.5241C126.425 22.1268 123.223 21.6969 120.834 19.8085C118.446 17.92 117.092 14.4084 118.049 11.3949C119.005 8.38146 122.533 6.46088 125.199 7.85913" stroke="#C93F2D" stroke-width="1.42" stroke-miterlimit="10"/>
<path d="M145.15 12.3632C144.205 9.35376 145.06 5.78583 147.246 3.63623" stroke="#A32A21" stroke-width="1.32" stroke-linecap="round" stroke-linejoin="round"/>
<path d="M120.901 16.4092C121.685 14.5851 122.615 12.7971 123.957 11.3989C126.762 8.48989 131.325 7.74255 134.808 9.62295" stroke="#A32A21" stroke-width="1.32" stroke-linecap="round" stroke-linejoin="round"/>
<path d="M124.802 20.3347C124.989 17.9601 126.148 15.694 127.91 14.2476C129.676 12.8011 132.02 12.1944 134.206 12.6203" stroke="#A32A21" stroke-width="1.32" stroke-linecap="round" stroke-linejoin="round"/>
<path d="M122.519 18.9125C122.582 16.9035 123.58 14.9508 125.125 13.8097" stroke="#A32A21" stroke-width="1.32" stroke-linecap="round" stroke-linejoin="round"/>
<path d="M145.56 13.1708C141.375 15.8065 136.089 19.4709 136.636 27.9327" stroke="#A32A21" stroke-width="1.32" stroke-linecap="round" stroke-linejoin="round"/>
<path d="M149.091 16.9597C150.85 23.9067 148.784 31.81 143.917 36.7722" stroke="#A32A21" stroke-width="1.32" stroke-linecap="round" stroke-linejoin="round"/>
<path d="M147.354 15.0271C147.789 17.7714 147.553 21.5321 146.983 24.18C146.162 27.993 144.561 31.6895 141.093 33.7226" stroke="#A32A21" stroke-width="1.32" stroke-linecap="round" stroke-linejoin="round"/>
<path d="M130.764 20.9978C130.389 17.7794 133.55 15.6137 135.886 14.4485C139.103 12.8413 142.114 12.5762 145.623 12.9056" stroke="#A32A21" stroke-width="1.32" stroke-linecap="round" stroke-linejoin="round"/>
<path d="M134.354 11.0453C137.804 8.39345 144.013 11.3105 145.003 11.8408" stroke="#A32A21" stroke-width="1.32" stroke-linecap="round" stroke-linejoin="round"/>
<path d="M148.626 15.7181C150.523 13.2792 152.143 10.5913 153.437 7.7345" stroke="#A32A21" stroke-width="1.32" stroke-linecap="round" stroke-linejoin="round"/>
<path d="M146.665 13.9784C146.069 18.4986 144.7 22.9022 142.642 26.9001" stroke="#A32A21" stroke-width="1.32" stroke-linecap="round" stroke-linejoin="round"/>
<path d="M143.269 9.01221C144.843 13.0985 147.689 16.5418 151.356 18.5628" stroke="#330D0B" stroke-width="1.32" stroke-linecap="round" stroke-linejoin="round"/>
<path d="M140.47 4.45989C140.38 3.96167 140.343 3.39915 140.613 2.98129C141.059 2.2902 142.131 2.43083 142.66 3.04557C143.192 3.66434 143.316 4.55632 143.376 5.39607C143.455 6.52511 143.646 8.08005 143.2 9.0765C141.636 8.81132 140.736 5.92242 140.47 4.45989Z" stroke="#330D0B" stroke-width="1.32" stroke-linecap="round" stroke-linejoin="round"/>
<path d="M145.529 5.2153C145.885 4.87377 146.278 4.55636 146.732 4.39564C147.186 4.23492 147.715 4.24698 148.112 4.53225C148.787 5.0144 148.839 6.12335 148.423 6.87069C148.011 7.61803 147.265 8.07607 146.533 8.44974C146.177 8.63055 145.814 8.7993 145.435 8.91582C144.764 9.12073 143.748 9.43413 143.084 9.39395C142.791 8.08812 144.7 6.00683 145.529 5.21932V5.2153Z" stroke="#330D0B" stroke-width="1.32" stroke-linecap="round" stroke-linejoin="round"/>
<path d="M143.211 9.16895C142.795 10.4989 142.923 12.0096 143.549 13.2391" stroke="#330D0B" stroke-width="1.32" stroke-linecap="round" stroke-linejoin="round"/>
<path d="M139.653 7.32068C140.351 8.68276 141.824 9.5426 143.272 9.43813" stroke="#330D0B" stroke-width="1.32" stroke-linecap="round" stroke-linejoin="round"/>
<path d="M151.964 18.1128C153.437 18.5467 155.053 18.153 156.347 17.2811C157.641 16.4132 158.638 15.1034 159.395 13.681C159.774 12.9739 160.097 12.2346 160.303 11.4511C161.188 8.09607 159.515 4.18662 156.572 2.71204" stroke="#C93F2D" stroke-width="1.32" stroke-miterlimit="10"/>
<path d="M144.761 38.1021C147.955 36.953 150.535 34.1163 151.705 30.7292C152.875 27.342 152.676 23.4808 151.349 20.162" stroke="#C93F2D" stroke-width="1.32" stroke-miterlimit="10"/>
<path d="M130.527 45.8487C132.687 47.6367 135.698 47.4639 138.42 47.2027C140.059 47.046 141.873 46.7969 142.938 45.4509C144.262 46.0737 149.343 48.0264 151.36 49.2599C147.869 52.4823 145.046 58.2762 142.545 62.4267C142.406 62.6597 142.237 62.9048 141.986 62.9651C141.753 63.0214 141.521 62.9089 141.307 62.8004C135.664 59.9195 129.702 57.7619 123.587 56.3877C125.154 52.6832 128.319 49.1595 130.531 45.8527L130.527 45.8487Z" fill="#F4F0D3"/>
<path d="M129.825 48.3719C133.98 50.2684 138.948 49.9791 142.885 47.6166" stroke="#A55F38" stroke-width="1.32" stroke-linecap="round" stroke-linejoin="round"/>
<path d="M129.896 87.5548C129.686 87.3901 115.832 77.5984 113.226 75.9269C110.785 74.3599 105.892 73.6688 103.259 74.834C101.587 75.5733 97.8001 77.5341 97.3727 79.4185C95.3592 88.2861 97.7926 96.338 101.171 104.715C103.522 110.553 104.538 112.048 106.949 118.159C110.252 114.531 114.107 112.382 117.433 109.758C122.855 105.479 127.605 101.152 134.197 97.455L129.896 87.5548ZM118.036 108.46C116.765 105.113 115.562 101.734 114.429 98.3309C117.901 100.268 121.047 101.252 124.519 103.189L118.036 108.46Z" fill="#0E7289"/>
<path d="M150.861 110.55C155.124 107.118 156.755 102.626 157.209 96.9327C157.666 91.2393 156.639 85.5419 155.645 79.9288C154.651 74.3158 153.335 68.6264 151.674 62.9169L137.651 59.0717C133.834 58.0632 128.487 56.1989 124.846 54.6078L123.826 54.8248C123.069 56.5243 122.488 58.1556 121.907 59.9316C121.562 60.9883 121.438 61.9365 121.348 63.0495C121.239 64.4638 121.768 67.9594 122.03 69.3496C122.555 72.1501 123.256 72.7407 123.785 75.5412C123.928 76.2926 125.769 84.7182 125.769 84.7182C128.142 89.0696 130.786 93.3447 133.86 97.1577C132.353 97.6118 130.996 98.5038 129.657 99.3837C127.786 100.617 116.62 106.106 113.646 108.496C111.295 110.385 108.453 111.904 106.785 114.596C105.454 116.745 106.507 120.45 107.64 122.704C108.704 124.825 110.553 127.027 112.69 127.903C115.547 129.076 118.746 128.212 121.682 127.3C127.253 125.565 132.777 123.656 138.247 121.583C138.311 119.268 138.596 116.958 139.095 114.708C141.566 113.631 148.723 112.265 150.857 110.546L150.861 110.55Z" fill="#0E7289"/>
<path d="M122.716 57.7458C123.537 58.1154 125.528 56.0181 126.345 56.3837C127.751 52.5024 129.06 48.5166 130.822 44.808C129.765 44.7035 128.52 44.583 127.466 44.4825C126.109 47.9581 123.642 54.5595 122.716 57.7458Z" fill="#0E7289"/>
<path d="M140.481 61.595C141.099 59.0074 142.625 55.8091 144.283 53.4064C145.936 51.0037 150.323 48.5929 150.323 48.5929L146.424 46.9014C145.91 47.0018 145.715 47.2188 145.321 47.5844C140.964 51.6064 137.897 57.2395 136.394 63.1861" fill="#0E7289"/>
<path d="M105.866 114.788C108.667 111.036 125.934 101.883 132.537 96.2216" stroke="#0A505B" stroke-width="1.32" stroke-miterlimit="10"/>
<path d="M134.602 73.8015C135.029 70.0889 136.162 65.8178 137.823 62.5231C134.19 61.6914 129.476 60.036 126.079 58.4248C124.684 61.611 123.882 65.2834 123.886 68.8031" stroke="#0A505B" stroke-width="1.32" stroke-linecap="round" stroke-linejoin="round"/>
<path d="M137.657 59.0596C138.79 59.1881 139.911 59.4694 140.979 59.8953" stroke="#0A505B" stroke-width="1.32" stroke-linecap="round" stroke-linejoin="round"/>
<path d="M123.956 54.2783L126.675 55.3591" stroke="#0A505B" stroke-width="1.32" stroke-linecap="round" stroke-linejoin="round"/>
<path d="M111.056 97.0774C112.585 97.877 114.168 98.5681 115.78 99.1426" stroke="#0A505B" stroke-width="1.32" stroke-linecap="round" stroke-linejoin="round"/>
<path d="M146.714 88.9732C148.739 88.4187 150.838 88.1856 152.923 88.2821" stroke="#0A505B" stroke-width="1.32" stroke-linecap="round" stroke-linejoin="round"/>
<path d="M146.294 88.9451C147.94 89.8612 149.65 90.6447 151.405 91.2915" stroke="#0A505B" stroke-width="1.32" stroke-linecap="round" stroke-linejoin="round"/>
<path d="M129.03 118.115C132.33 117.087 135.626 116.058 138.925 115.03" stroke="#0A505B" stroke-width="1.32" stroke-linecap="round" stroke-linejoin="round"/>
<path d="M110.718 121.888C111.126 122.865 111.696 123.765 112.394 124.532" stroke="#0A505B" stroke-width="1.32" stroke-linecap="round" stroke-linejoin="round"/>
<path d="M111.733 119.043C112.607 120.815 113.481 122.587 114.358 124.359" stroke="#0A505B" stroke-width="1.32" stroke-linecap="round" stroke-linejoin="round"/>
<path d="M109.512 123.998C108.106 124.669 106.235 125.762 104.409 126.846C101.979 128.289 101.023 131.507 102.223 134.191C106.208 134.344 118.499 134.002 124.649 133.134C125.905 132.958 126.696 131.575 126.227 130.314C125.68 128.835 124.922 127.357 124.562 125.938" fill="#220D09"/>
<path d="M150.128 110.132C151.08 110.578 152.31 110.734 153.105 110.791C153.558 110.823 153.911 111.229 153.903 111.719L153.806 118.015C153.798 118.513 153.42 118.915 152.955 118.915C152.467 118.915 152.047 119.269 151.916 119.775C151.38 121.848 149.925 125.388 148.763 128.076C147.803 130.29 145.741 131.716 143.461 131.744L138.879 131.8C138.879 131.8 138.526 131.222 138.062 130.458C136.974 128.67 137.495 126.272 139.213 125.191L139.228 125.183C140.218 124.552 140.229 123.017 139.273 122.338C138.609 121.868 138.043 121.47 138.107 121.527C138.384 119.285 138.976 114.451 138.976 114.451L150.124 110.144L150.128 110.132Z" fill="#220D09"/>
<path d="M129.564 32.8868C131.032 32.8868 132.222 31.6114 132.222 30.0381C132.222 28.4647 131.032 27.1893 129.564 27.1893C128.096 27.1893 126.905 28.4647 126.905 30.0381C126.905 31.6114 128.096 32.8868 129.564 32.8868Z" fill="#EA7663"/>
<path d="M122.139 70.3943C125.334 71.7604 132.364 77.8074 135.69 78.7435C136.035 78.84 136.425 78.9284 136.728 78.7275C136.863 78.6391 136.961 78.5065 137.04 78.3618C137.381 77.7391 137.677 77.0882 137.827 76.381L140.369 64.3834C140.98 61.5026 141.607 58.5775 142.968 56.01C144.329 53.4426 147.651 49.4889 150.328 50.18C152.39 50.7104 152.03 50.9434 153.009 51.7269C156.684 54.6681 156.365 59.4173 155.656 63.8049C154.138 73.2229 150.707 82.2833 145.694 90.1906C144.123 92.6697 141.385 93.9755 138.618 93.5617C137.497 93.3929 136.41 93.1519 135.476 92.8626C130.707 91.4 116.087 78.2694 116.196 77.8154C116.196 77.8154 115.157 74.6613 117.268 72.2425C119.233 69.9925 122.139 70.3862 122.139 70.3862V70.3943Z" fill="#F0A768"/>
<path d="M142.207 57.1512C144.476 51.6385 148.042 46.6804 153.01 49.9631C155.297 51.4738 156.988 54.0212 157.791 56.7694C158.589 59.5177 158.769 62.4267 158.938 65.2995C159.133 68.5822 158.263 72.0617 158.458 75.3444C158.518 76.3207 139.752 72.7448 137.989 71.6278C137.989 71.6278 138.919 68.7389 139.444 66.2799C139.872 64.283 140.786 60.6066 142.207 57.1471V57.1512Z" fill="#F4F0D3"/>
<path d="M139.368 67.7344C140.493 68.55 141.888 68.7951 143.23 69.0201C147.943 69.8036 154.164 71.8085 158.288 71.6318" stroke="#A55F38" stroke-width="1.32" stroke-linecap="round" stroke-linejoin="round"/>
<path d="M156.452 75.1676C156.752 71.7001 156.895 68.2166 156.883 64.733" stroke="#A55F38" stroke-width="1.32" stroke-linecap="round" stroke-linejoin="round"/>
<path d="M77.958 72.3309C80.6239 72.6925 83.3461 72.5519 85.9708 71.9331C88.408 71.3545 90.3727 69.3978 91.1076 66.8384C93.8073 57.4163 97.7331 44.9406 98.7642 36.1373L100.369 27.3019C100.616 25.9398 97.5419 24.3005 96.2558 24.4893C95.8471 24.5496 95.4496 24.646 95.0897 24.7746C93.5523 27.2456 92.09 30.5765 91.3251 33.4292C89.3191 40.8865 85.2284 49.2157 81.895 56.1065C79.0416 57.2194 75.952 57.6212 72.9336 57.2676" fill="#BF5526"/>
<path d="M97.5264 28.8246C97.6201 27.6152 98.4263 26.5023 99.4986 26.1045" stroke="#6D2920" stroke-width="1.32" stroke-linecap="round" stroke-linejoin="round"/>
<path d="M95.0596 27.9367C95.2545 26.8157 95.8545 25.7791 96.7056 25.092" stroke="#6D2920" stroke-width="1.32" stroke-linecap="round" stroke-linejoin="round"/>
<path d="M87.7549 58.2681C88.1748 58.4127 89.0522 55.1019 89.0522 55.1019" stroke="#6D2920" stroke-width="1.32" stroke-linecap="round" stroke-linejoin="round"/>
<path d="M89.9307 57.4726L91.5467 53.535" stroke="#6D2920" stroke-width="1.32" stroke-linecap="round" stroke-linejoin="round"/>
<path d="M20.1404 127.345C13.6049 127.144 7.15946 124.669 1.95508 120.434C0.968953 119.63 -0.399632 120.747 0.110307 121.956C1.48264 125.207 4.27606 127.477 7.95811 129.233C10.7028 130.543 21.1078 134.432 28.2057 133.195" fill="#CD6A35"/>
<path d="M70.4664 107.544C69.0453 110.823 65.2658 114.001 62.0862 116.09C60.3164 117.256 55.3107 120.016 51.4637 121.378L51.3362 121.394C51.4112 122.025 51.5012 122.648 51.6212 123.25C51.9474 124.922 51.9061 125.46 52.9672 126.734C54.2121 128.229 56.8743 128.393 58.7453 128.389C60.995 128.389 63.571 127.843 65.232 129.47C66.4319 130.643 66.6756 132.608 66.3831 134.32C60.6126 134.488 53.7921 135.111 48.0178 135.28C38.5315 135.557 28.5802 135.726 20.1474 131.061L18.7414 131.527C17.2228 128.016 17.8602 123.612 18.2352 119.891C19.3675 108.762 27.1253 101.156 33.6158 93.1881C41.3586 83.6776 46.938 72.0055 49.5589 59.6825C49.6564 59.2244 49.7501 58.7664 49.8364 58.3084C50.44 55.1904 51.0925 52.0846 51.8761 49.0149C52.3973 46.9738 52.911 44.8603 54.0134 43.0924C55.1757 41.2321 56.908 39.8741 58.6628 38.6566C61.0288 37.0133 61.6025 36.2057 64.4146 36.3222C65.367 36.3624 66.3081 36.5512 67.2193 36.8566L73.1436 38.8374C75.1683 39.5165 78.6892 38.6325 81.4038 38.1905C82.465 38.0178 83.4211 38.8615 83.4773 40.0107C83.5148 40.7459 83.5298 41.4772 83.4998 42.2125C83.4586 43.2331 83.0011 44.1813 82.2737 44.8402C80.8077 46.1742 79.2591 47.7572 77.5305 48.9144C76.1245 49.8586 73.886 51.502 73.2336 53.1373C72.6974 54.4793 77.4818 65.163 78.8766 70.1211C80.8114 77.0038 81.3213 81.5401 80.9464 87.784C80.7027 91.834 80.414 94.8475 80.399 101.497C80.384 108.348 79.9865 118.449 82.1012 128.843C83.2636 129.233 83.0049 128.996 84.1635 129.386C84.6697 129.554 85.2059 129.743 85.5583 130.169C86.0233 130.728 86.057 131.547 86.0683 132.295C86.0758 132.921 86.087 133.552 86.0945 134.179H78.7079C76.6794 134.179 74.9659 132.584 74.6771 130.434C73.406 120.96 70.4626 107.528 70.4626 107.528" fill="#CD6A35"/>
<path d="M41.0107 105.945C43.9991 107.359 46.7701 109.509 48.6336 112.418C50.4109 115.186 50.7596 118.26 51.2545 121.414C51.3557 122.061 51.4645 122.708 51.592 123.359" stroke="#6D2920" stroke-width="1.32" stroke-linecap="round" stroke-linejoin="round"/>
<path d="M61.8392 39.7535C60.6393 40.0629 59.4957 40.6053 58.4796 41.3567C57.6397 41.9754 57.1673 43.0402 57.2385 44.1291C57.4597 47.5885 58.3859 50.4774 59.7094 53.8203C59.9119 54.3346 60.3319 54.3828 60.6506 53.9368C62.5853 51.2488 63.9577 48.1028 64.6476 44.792C64.7113 44.4907 64.6963 44.1813 64.6176 43.884L63.8564 41.0393C63.609 40.1071 62.7203 39.5245 61.8392 39.7495V39.7535Z" fill="#7F2C21"/>
<path d="M81.5996 38.2307C82.147 38.0941 82.7057 38.0017 83.2682 37.9535C83.3694 37.9455 83.4819 37.9414 83.5644 38.0017C83.6918 38.0981 83.6956 38.291 83.6844 38.4557C83.6469 38.9459 83.5756 39.4361 83.4669 39.9143C83.4444 40.0107 83.4181 40.1152 83.3394 40.1674C83.1894 40.2678 83.0094 40.0991 82.9044 39.9464C82.5407 39.4361 82.177 38.9218 81.8133 38.4075" fill="#72261C"/>
<path d="M69.7314 43.6147C70.1026 43.7594 70.5001 43.8196 70.8938 43.7915C71.3887 43.7594 71.7 43.2049 71.5162 42.7107C71.3925 42.3812 71.0888 42.1562 70.7588 41.9955" stroke="#6D2920" stroke-width="1.32" stroke-linecap="round" stroke-linejoin="round"/>
<path d="M74.5684 46.4072C77.7705 45.5715 80.8039 43.9964 83.3985 41.8147" stroke="#6D2920" stroke-width="1.32" stroke-linecap="round" stroke-linejoin="round"/>
<path d="M69.3115 99.1226C70.0314 102.646 70.6314 106.198 71.1001 109.774" stroke="#6D2920" stroke-width="1.32" stroke-linecap="round" stroke-linejoin="round"/>
<path d="M64.5801 130.912C65.1425 131.837 65.3487 133.006 65.1387 134.087" stroke="#6D2920" stroke-width="1.32" stroke-linecap="round" stroke-linejoin="round"/>
<path d="M63.2334 132.568C63.3309 133.102 63.4321 133.633 63.5296 134.167" stroke="#6D2920" stroke-width="1.32" stroke-linecap="round" stroke-linejoin="round"/>
<path d="M84.5918 131.065C84.963 131.949 85.128 132.934 85.0755 133.902" stroke="#6D2920" stroke-width="1.32" stroke-linecap="round" stroke-linejoin="round"/>
<path d="M83.0879 132.222C83.1591 132.849 83.2604 133.472 83.3954 134.087" stroke="#6D2920" stroke-width="1.32" stroke-linecap="round" stroke-linejoin="round"/>
<path d="M45.7051 77.9159C46.3575 76.4092 47.0099 74.9025 47.6623 73.3917" stroke="#6D2920" stroke-width="1.32" stroke-linecap="round" stroke-linejoin="round"/>
<path d="M48.4004 76.0435C49.1578 74.1912 49.9152 72.343 50.6726 70.4907" stroke="#6D2920" stroke-width="1.32" stroke-linecap="round" stroke-linejoin="round"/>
<path d="M19.124 125.38C19.469 124.235 19.8102 123.09 20.1551 121.944" stroke="#6D2920" stroke-width="1.32" stroke-linecap="round" stroke-linejoin="round"/>
<path d="M21.4336 124.082C21.7786 122.848 22.1235 121.615 22.4685 120.381" stroke="#6D2920" stroke-width="1.32" stroke-linecap="round" stroke-linejoin="round"/>
<path d="M77.8574 76.8551C77.9662 78.623 78.0749 80.3909 78.1799 82.1548" stroke="#6D2920" stroke-width="1.32" stroke-linecap="round" stroke-linejoin="round"/>
<path d="M80.2116 81.1182C79.9003 82.5003 79.8366 83.9468 80.0241 85.3571" stroke="#6D2920" stroke-width="1.32" stroke-linecap="round" stroke-linejoin="round"/>
</svg>
