<svg width="67" height="61" viewBox="0 0 67 61" fill="none" xmlns="http://www.w3.org/2000/svg">
<g clip-path="url(#clip0_5663_7935)">
<path d="M30.8774 0.958662L0 27.5854L33.4317 44.6205L66.8635 27.5854L35.9861 0.958662C34.5058 -0.318578 32.3577 -0.318578 30.8774 0.958662Z" fill="#3D4CAD"/>
<path d="M57.1818 9.23926H11.5768C9.71248 9.23926 8.20117 10.8091 8.20117 12.7455V43.0805C8.20117 45.0169 9.71248 46.5867 11.5768 46.5867H57.1818C59.0461 46.5867 60.5574 45.0169 60.5574 43.0805V12.7455C60.5574 10.8091 59.0461 9.23926 57.1818 9.23926Z" fill="#F2F2F2"/>
<path d="M36.2719 22.9971H16.0853C15.3894 22.9971 14.8232 22.4112 14.8232 21.6862C14.8232 20.9611 15.3873 20.3752 16.0853 20.3752H36.2719C36.9677 20.3752 37.5339 20.9611 37.5339 21.6862C37.5339 22.4112 36.9699 22.9971 36.2719 22.9971Z" fill="#D6D9E5"/>
<path d="M52.6722 30.2048H16.0853C15.3894 30.2048 14.8232 29.619 14.8232 28.8939C14.8232 28.1689 15.3873 27.583 16.0853 27.583H52.6722C53.3681 27.583 53.9343 28.1689 53.9343 28.8939C53.9343 29.619 53.3702 30.2048 52.6722 30.2048Z" fill="#D6D9E5"/>
<path d="M52.6722 37.4126H16.0853C15.3894 37.4126 14.8232 36.8267 14.8232 36.1017C14.8232 35.3766 15.3873 34.7908 16.0853 34.7908H52.6722C53.3681 34.7908 53.9343 35.3766 53.9343 36.1017C53.9343 36.8267 53.3702 37.4126 52.6722 37.4126Z" fill="#D6D9E5"/>
<path d="M0 27.5852L33.4318 44.6203L66.8657 27.5852V61H0V27.5852Z" fill="#4E62DF"/>
<path d="M63.388 15.4554C66.3443 12.3846 66.3443 7.40591 63.388 4.33513C60.4316 1.26435 55.6384 1.26435 52.6821 4.33513C49.7257 7.4059 49.7257 12.3846 52.6821 15.4554C55.6384 18.5262 60.4316 18.5262 63.388 15.4554Z" fill="#ED5353"/>
<path d="M58.6648 6.32336V13.4615H57.6923V7.21002H56.1406V6.32336H58.6648Z" fill="white"/>
</g>
<defs>
<clipPath id="clip0_5663_7935">
<rect width="66.8657" height="61" fill="white"/>
</clipPath>
</defs>
</svg>
