<svg width="360" height="88" viewBox="0 0 360 88" fill="none" xmlns="http://www.w3.org/2000/svg">
<g clip-path="url(#clip0_5663_8452)">
<path d="M189.342 33.7178L183.341 36.831C180.328 38.4005 182.918 41.3593 183.315 41.9382L183.905 41.6295L182.866 39.6226L183.341 39.3782L184.379 41.3851L184.854 41.1406L183.815 39.1338L184.29 38.8894L185.328 40.8962L185.803 40.6518L184.764 38.6449L185.239 38.4005L186.277 40.4074L186.752 40.1629L185.713 38.1561L186.187 37.9116L187.226 39.9185L187.7 39.6741L186.662 37.6672L187.136 37.4228L188.175 39.4297L188.649 39.1852L187.611 37.1784L188.085 36.9339L189.124 38.9408L189.598 38.6964L188.559 36.6895L189.034 36.4451L190.073 38.452L190.547 38.2075L189.508 36.2007L189.983 35.9562L191.021 37.9631L191.496 37.7187L190.457 35.7118L190.932 35.4674L191.97 37.4743L192.445 37.2298L191.406 35.223L191.88 34.9785L192.919 36.9854L193.509 36.6767C193.265 36.0077 192.304 32.2127 189.329 33.7564L189.342 33.7178Z" fill="#26C4C4"/>
<path d="M168.313 32.0454C161.851 33.4348 171.378 57.2727 180.853 57.7744C190.611 58.289 200.292 45.8491 200.292 45.8491L199.715 44.4726C199.715 44.4726 187.457 51.7539 181.712 51.5223C175.481 51.2779 171.993 31.2607 168.3 32.0583L168.313 32.0454Z" fill="#E5BFB5"/>
<path d="M171.07 34.6827L166.21 36.5352C166.261 37.6029 166.454 38.7865 166.774 40.06L172.544 37.8345C172.031 36.6638 171.544 35.5832 171.057 34.6827H171.07Z" fill="#208E9D"/>
<path d="M176.455 46.3122L171.031 49.7213C171.647 50.7376 172.647 52.1141 173.339 53.0275L178.237 49.2839C177.609 48.422 177.019 47.4185 176.442 46.3122H176.455Z" fill="#208E9D"/>
<path d="M182.379 51.5094L183.251 57.6458C184.418 57.4657 185.584 57.1441 186.713 56.6938L185.867 50.8533C184.597 51.2135 183.418 51.458 182.392 51.5094H182.379Z" fill="#208E9D"/>
<path d="M169.249 14.717C169.249 14.717 171.89 7.93742 170.492 5.39025C166.646 -1.63377 149.708 -1.50512 151.746 4.09093C146.438 2.27704 145.745 21.1493 157.875 23.1433C169.338 25.163 169.249 14.717 169.249 14.717Z" fill="#FFE18E"/>
<path d="M148.387 7.16552C148.695 11.205 153.836 11.8225 155.76 10.0086C157.811 8.0789 160.953 7.29416 163.607 6.62521C166.261 5.96912 166.312 4.45111 166.312 4.45111C166.659 5.35163 168.749 7.12693 170.89 7.1012C170.916 10.6389 169.262 14.7041 169.262 14.7041C169.262 14.7041 168.428 24.5712 157.888 23.1304C149.438 21.741 147.207 12.6587 148.4 7.15266L148.387 7.16552Z" fill="#FFD067"/>
<path d="M172.352 67.0626C174.596 70.1244 188.008 56.771 194.111 62.0969C199.112 66.458 181.93 82.9374 162.363 83.3748C138.783 83.9022 128.012 67.3199 131.718 62.0969C135.411 56.8611 145.181 68.7479 147.579 67.0626C150.413 65.699 165.864 66.3036 172.352 67.0626Z" fill="#208E9D"/>
<path d="M163.876 82.217C161.594 82.7058 155.542 82.3456 155.106 82.5257C154.157 82.9117 154.811 84.7513 156.773 85.253C158.106 85.6003 160.235 85.4202 163.633 83.7864L163.876 82.217Z" fill="#EDCCC1"/>
<path d="M194.111 62.1098C187.917 57.1956 178.788 73.0189 161.927 81.9597C161.927 81.9597 162.145 83.928 163.889 84.2496C163.889 84.2496 178.968 80.4932 187.02 74.5498C193.675 69.6355 196.649 64.1167 194.111 62.1098Z" fill="#3AAAB9"/>
<path d="M168.223 81.7024C170.505 82.1655 176.557 81.741 176.993 81.9082C177.955 82.2942 177.314 84.1338 175.365 84.6612C174.044 85.0214 171.903 84.8671 168.479 83.2719L168.223 81.7024Z" fill="#EDCCC1"/>
<path d="M163.889 84.2496C162.145 83.928 161.927 81.9597 161.927 81.9597C163.542 81.1106 165.081 80.1844 166.556 79.2324C169.992 80.7247 172.941 80.9434 174.339 80.9434C168.697 83.0532 163.889 84.2624 163.889 84.2624V84.2496Z" fill="#2B9BAA"/>
<path d="M169.864 81.6252C169.864 81.6252 169.761 82.8216 168.453 83.6964C168.453 83.6964 155.58 82.4357 144.783 77.2384C135.359 72.6973 130.038 64.6312 131.718 62.1098C134.115 58.5077 138.129 61.8911 149.438 69.7384C154.541 73.2762 169.877 81.6252 169.877 81.6252H169.864Z" fill="#3AAAB9"/>
<path d="M144.784 76.3636C154.401 80.9949 166.659 82.6672 169.249 82.9889C169.057 83.2333 168.8 83.4777 168.467 83.7093C168.467 83.7093 155.593 82.4485 144.797 77.2513C136.142 73.0703 130.975 65.982 131.449 62.8688C131.872 66.2907 136.873 72.5557 144.771 76.3636H144.784Z" fill="#2B9BAA"/>
<path d="M172.954 67.4743C172.954 67.4743 168.236 71.0506 160.517 70.9477C152.798 70.8448 146.117 67.0497 146.117 67.0497C146.72 67.2813 147.233 67.3199 147.566 67.0755C150.4 65.7118 165.851 66.3164 172.339 67.0755C172.493 67.2813 172.698 67.4099 172.941 67.4743H172.954Z" fill="#1D8191"/>
<path d="M166.633 52.6029C166.633 57.8774 168.351 61.7882 172.352 67.0755C164.492 69.7642 156.196 69.5326 147.579 67.0755C150.092 58.6235 155.811 53.3491 155.811 52.3328C155.811 51.3165 152.144 47.4957 150.144 41.7324C148.105 35.8533 149.002 32.7787 149.002 32.7787C156.388 29.4597 160.722 28.6878 169.133 32.1355L169.454 37.2427C169.454 37.2427 171.736 41.2307 171.48 43.0189C171.223 44.807 166.646 49.7727 166.646 52.5901L166.633 52.6029Z" fill="#F7EEE2"/>
<path d="M168.775 32.0069C168.403 32.9331 166.018 34.8242 160.248 35.0043C154.76 35.1715 152.272 34.0523 149.823 32.4314C156.593 29.4854 160.927 28.8679 168.775 32.0197V32.0069Z" fill="#3AAAB9"/>
<path d="M168.146 31.7753C161.183 28.8551 156.785 29.5112 150.669 32.0583C151.784 32.753 155.516 34.7342 161.337 34.1553C165.735 33.7179 167.466 32.5601 168.146 31.7753Z" fill="#E08344"/>
<path d="M155.042 18.2676C155.042 18.2676 157.042 25.8319 155.324 31.0677L160.632 31.9811L163.915 32.0069C163.915 32.0069 162.607 28.2247 162.876 23.8379C163.069 20.6218 155.042 18.2676 155.042 18.2676Z" fill="#E08344"/>
<path d="M172.352 67.0626C164.492 69.7513 156.196 69.5197 147.579 67.0626C150.092 58.6106 155.811 53.3362 155.811 52.3199C155.811 51.3808 152.734 48.0746 150.669 43.0703L150.695 43.0317C150.695 43.0317 157.504 45.9648 165.338 45.0901C170.736 44.4854 171.467 43.0317 171.467 43.0317C171.211 44.8199 166.633 49.7856 166.633 52.6029C166.633 57.8774 168.351 61.7882 172.352 67.0755V67.0626Z" fill="#F4D7D0"/>
<path d="M150.669 32.0712C151.4 32.5214 153.285 33.5249 156.119 34.0009C160.016 32.277 162.171 29.9743 163.145 28.6492C162.927 27.2856 162.773 25.6261 162.876 23.8379C162.902 23.452 162.799 23.0918 162.619 22.7316L159.337 20.0043C157.26 18.9237 155.041 18.2676 155.041 18.2676C155.041 18.2676 156.888 25.253 155.503 30.4374C153.964 30.7976 152.387 31.3379 150.656 32.0583L150.669 32.0712Z" fill="#D1652F"/>
<path d="M182.546 34.747C184.072 34.271 185.841 33.3962 186.29 33.8722C187.265 34.9014 185.854 36.8053 184.739 37.1269C183.61 37.3713 182.046 36.5995 182.046 36.5995C182.046 36.5995 181.046 35.223 182.559 34.747H182.546Z" fill="#FFB476"/>
<path d="M189.778 33.9494C189.88 33.7307 188.367 33.1132 188.008 33.1003C187.713 33.1003 187.38 33.0231 185.098 33.8593L186.444 34.464C186.444 34.464 187.752 33.7821 187.97 33.7435C188.188 33.705 189.124 34.3868 189.778 33.9494Z" fill="#FFB476"/>
<path d="M189.649 37.0754C189.919 36.8696 188.79 35.8276 188.483 35.6475C188.085 35.4159 188.034 35.2229 185.803 34.2967L186.354 35.6346C186.354 35.6346 187.983 36.1363 188.162 36.2521C188.342 36.3679 189.111 37.1526 189.662 37.0754H189.649Z" fill="#FFB476"/>
<path d="M188.816 37.8859C189.072 37.6801 187.995 36.6895 187.688 36.5094C187.303 36.2907 187.264 36.0977 185.11 35.2101L185.636 36.4965C185.636 36.4965 187.188 36.9725 187.367 37.0883C187.547 37.2041 188.277 37.9502 188.816 37.873V37.8859Z" fill="#FFB476"/>
<path d="M187.264 38.1818C187.482 38.0146 186.572 37.1655 186.316 37.024C185.995 36.831 185.957 36.6767 184.136 35.9177L184.585 37.0111C184.585 37.0111 185.905 37.4228 186.046 37.5129C186.2 37.6029 186.816 38.2461 187.264 38.1818Z" fill="#FFB476"/>
<path d="M165.646 26.2436C166.403 26.0635 167.377 24.5197 168.044 23.7093C169.442 21.9726 170.673 19.9271 169.198 15.952C169.198 15.952 171.07 5.0429 162.338 5.18441C153.606 5.32592 153.247 14.0738 155.927 20.2873C158.607 26.5009 164.941 26.4108 165.659 26.2436H165.646Z" fill="#FFB476"/>
<path d="M160.145 5.45453C154.221 7.26842 155.593 25.8705 165.735 26.205C165.71 26.205 165.671 26.2307 165.646 26.2435C164.928 26.4108 158.593 26.5137 155.913 20.2873C153.477 14.6398 153.567 6.93395 160.145 5.45453Z" fill="#ED9558"/>
<path d="M162.005 16.3508C162.005 16.3508 161.889 17.2899 160.171 17.2256C158.696 17.1741 158.196 16.3765 158.632 16.4923C159.068 16.6081 161.992 16.3508 161.992 16.3508H162.005Z" fill="#6D3A31"/>
<path d="M162.146 15.8362L158.53 15.5789L157.696 15.5275C158.26 14.434 161.812 13.6878 162.146 15.8362Z" fill="#6D3A31"/>
<path d="M161.992 15.8619C161.877 15.3216 161.543 14.7041 160.235 14.8071C158.415 14.9486 158.248 16.0806 158.594 16.5695C159.197 17.4314 162.338 17.5215 161.992 15.8619Z" fill="#F7EEE2"/>
<path d="M159.696 15.9777C159.735 16.6595 160.312 17.187 160.991 17.1484C161.671 17.1098 162.197 16.5309 162.158 15.849C162.12 15.1672 161.543 14.6398 160.863 14.6784C160.184 14.717 159.658 15.2959 159.696 15.9777Z" fill="#6D3A31"/>
<path d="M165.864 15.9905C165.864 15.9905 165.89 16.9682 167.583 16.6595C168.608 16.4794 168.89 15.6561 168.467 15.8104C168.044 15.9648 165.852 15.9905 165.852 15.9905H165.864Z" fill="#6D3A31"/>
<path d="M165.787 15.4502L168.621 14.8713L169.249 14.717C168.57 13.7007 165.941 13.3791 165.787 15.4502Z" fill="#6D3A31"/>
<path d="M165.813 15.4889C165.877 14.9486 166.275 14.3182 167.582 14.2796C168.788 14.2796 168.916 15.3216 168.672 15.8619C168.198 16.904 165.621 17.0841 165.813 15.4889Z" fill="#F7EEE2"/>
<path d="M168.838 15.2701C168.877 15.9391 168.364 16.5051 167.697 16.5437C167.03 16.5823 166.466 16.0677 166.428 15.3988C166.389 14.7298 166.902 14.1638 167.569 14.1252C168.236 14.0866 168.8 14.6012 168.838 15.2701Z" fill="#6D3A31"/>
<path d="M165.774 12.53C165.774 12.53 164.248 14.2539 164.761 16.3122C165.273 18.3705 167.094 18.7178 167.094 18.7178C167.094 18.7178 166.799 20.2616 165.427 20.3774C164.055 20.506 166.376 18.8851 166.376 18.8851C166.376 18.8851 164.427 17.9074 164.119 16.4022C163.671 14.2667 165.774 12.5172 165.774 12.5172V12.53Z" fill="#E08344"/>
<path d="M158.542 6.49657C158.542 6.49657 156.221 7.5386 155.965 10.8319C155.708 14.1252 156.798 17.3928 156.055 17.6115C155.67 17.7273 154.683 17.0841 154.683 17.0841C154.683 17.0841 150.631 7.01115 156.734 5.41595L158.542 6.49657Z" fill="#FFE18E"/>
<path d="M161.748 12.3628C161.799 12.5557 161.017 12.5943 159.593 13.0317C158.298 13.4305 157.362 13.9708 157.298 13.7778C157.234 13.5849 157.888 12.8516 159.401 12.3628C160.863 11.8996 161.645 11.9768 161.735 12.3628H161.748Z" fill="#AA4017"/>
<path d="M169.659 13.1733C169.646 13.3148 168.928 12.8902 167.928 12.6587C166.94 12.44 165.966 12.2727 165.966 12.1055C165.966 11.964 166.209 11.8096 166.658 11.7968C169.441 12.0154 169.671 12.9674 169.646 13.1733H169.659Z" fill="#AA4017"/>
<path d="M162.184 21.934C162.158 21.9983 161.953 21.9983 161.889 21.9726C161.825 21.9469 161.787 21.8825 161.799 21.8053C161.825 21.741 161.889 21.7024 161.966 21.7153C162.03 21.741 162.21 21.8568 162.184 21.9211V21.934Z" fill="#93271C"/>
<path d="M167.518 21.4065C167.518 21.4065 167.749 21.3679 167.813 21.3165C167.864 21.265 167.877 21.1878 167.813 21.1364C167.761 21.0849 167.684 21.0721 167.633 21.1364C167.582 21.2007 167.466 21.3551 167.518 21.4194V21.4065Z" fill="#93271C"/>
<path d="M162.03 21.8825L167.646 21.3293C167.646 21.3293 166.89 23.1046 165.095 23.3233C163.3 23.542 162.03 21.8825 162.03 21.8825Z" fill="#9A6335"/>
<path d="M162.03 21.8825L167.646 21.3293C167.646 21.3293 166.89 23.1046 165.095 23.3233C163.3 23.542 162.03 21.8825 162.03 21.8825Z" fill="#93271C"/>
<path d="M162.453 21.9983L167.005 21.5352C167.005 21.5352 166.261 23.0918 164.748 23.1175C163.235 23.1432 162.453 21.9983 162.453 21.9983Z" fill="#F7EEE2"/>
<path d="M162.453 21.9983L167.005 21.5352L166.787 21.9082C166.787 21.9082 166.274 21.6767 164.774 21.8568C163.287 22.0369 162.697 22.2813 162.697 22.2813C162.697 22.2813 162.517 22.0755 162.453 21.9983Z" fill="#D5B698"/>
<path d="M167.171 5.03002C167.171 5.03002 166.941 6.7796 164.415 7.55147C158.568 9.33963 156.734 9.63551 155.426 14.7299C155.426 14.7299 153.939 9.23671 157.003 6.17496C158.811 4.36107 162.273 2.77874 167.171 5.01716V5.03002Z" fill="#FFD067"/>
<path d="M153.272 19.2324C153.349 20.2487 154.246 21.0077 155.259 20.9305C156.272 20.8534 157.029 19.9528 156.952 18.9365C156.875 17.9203 155.977 17.1612 154.965 17.2384C153.952 17.3156 153.195 18.2161 153.272 19.2324Z" fill="#ED9558"/>
<path d="M155.016 17.8817C155.285 17.8559 155.528 17.946 155.734 18.0746C155.631 18.0489 155.528 18.0232 155.413 18.036C154.849 18.0875 154.426 18.5763 154.477 19.1424C154.528 19.7084 155.016 20.1329 155.58 20.0815C155.67 20.0815 155.746 20.0429 155.823 20.0172C155.644 20.1458 155.452 20.2487 155.208 20.2745C154.554 20.3259 153.964 19.8371 153.913 19.181C153.862 18.5249 154.349 17.9331 155.003 17.8817H155.016Z" fill="#E08344"/>
<path d="M155.76 10.0214C155.888 9.90565 156.029 9.80273 156.17 9.68695C156.08 10.0343 156.016 10.4202 155.978 10.8448C155.721 14.1381 156.811 17.4056 156.068 17.6243C155.683 17.7401 154.696 17.0969 154.696 17.0969C154.696 17.0969 153.452 13.9966 153.388 10.9605C154.285 10.9091 155.144 10.6003 155.76 10.0214Z" fill="#FFE18E"/>
<path d="M149.002 32.7787C142.989 36.0206 157.106 58.3533 163.107 58.4563C170.377 58.5849 179.994 38.1175 183.071 36.7281L182.353 34.8499C179.468 35.8405 164.363 50.5832 163.274 50.5317C161.068 50.4545 152.631 30.8233 149.002 32.7787Z" fill="#FFB476"/>
<path d="M177.75 38.169C172.223 42.8002 164.043 50.5703 163.261 50.5318C161.055 50.4546 153.246 30.5661 148.989 32.7788C142.348 36.2393 157.093 58.8551 163.094 58.958C168.466 59.0481 175.955 48.8336 180.301 42.4529L177.763 38.169H177.75Z" fill="#F7EEE2"/>
<path d="M163.094 57.1184C158.375 57.0412 148.22 42.9803 147.374 35.3259C146.412 42.2599 157.965 58.868 163.094 58.9451C168.467 59.0352 175.955 48.8208 180.302 42.44L179.712 41.4623C175.301 47.8688 168.223 57.2084 163.094 57.1184Z" fill="#E5BFB5"/>
<path d="M182.674 85.0215C182.841 83.3491 190.316 83.0146 190.316 83.0146L189.483 80.8534C189.483 80.8534 188.175 80.5961 186.29 80.4674C185.739 80.2359 182.212 78.9623 177.635 80.5575L179.571 80.7505C179.571 80.7505 174.442 81.4451 172.57 84.0695L174.493 83.259C174.327 83.4134 174.173 83.5678 174.032 83.7222C173.198 84.5584 172.519 85.729 172.57 86.8225L182.661 85.0343L182.674 85.0215Z" fill="#FFC477"/>
<path d="M216.371 7.39707C213.422 6.56088 209.024 22.0626 209.28 23.5163C209.537 24.97 216.871 28.4948 218.025 27.8645C219.179 27.2341 221.295 8.78643 216.371 7.39707Z" fill="#F7A959"/>
<path d="M185.303 69.3011C186.393 38.8508 201.087 35.4031 203.344 17.3928L215.217 23.6064C213.473 35.7762 218.038 36.6124 218.205 49.7856C218.256 54.3011 208.319 65.8019 208.319 65.8019L201.087 78.0618L185.29 69.3011H185.303Z" fill="#FFC477"/>
<path d="M202.177 22.8859C198.112 36.1621 186.841 41.9382 185.393 67.3713C190.239 73.4563 199.305 56.8739 199.305 56.8739C199.305 56.8739 198.035 51.9211 198.356 44.5497C198.766 34.6312 201.1 32.0454 203.587 23.7093L202.177 22.8988V22.8859Z" fill="#F7A959"/>
<path d="M215.114 24.4168L205.139 19.271C205.139 19.271 205.536 22.7315 208.242 26.9382C212.563 33.6921 215.307 34.361 217.781 43.9194C216.679 36.2135 213.935 33.795 215.114 24.4168Z" fill="#ED9749"/>
<path d="M208.678 30.1029C209.139 29.8071 209.665 25.3559 209.819 20.7505L203.395 17.3928C203.023 20.3645 202.305 22.9374 201.382 25.3045C204.1 27.6844 208.062 30.5017 208.691 30.1029H208.678Z" fill="#ED9749"/>
<path d="M207.87 7.75732H216.371L221.82 13.5721L221.564 15.4889L225.026 18.3062C225.026 18.3062 224.744 24.1724 224.026 24.97C223.308 25.7676 218.833 26.4494 217.756 26.2307C216.679 26.012 210.486 23.9409 203.062 17.5858C203.062 17.5858 206.447 7.75732 207.883 7.75732H207.87Z" fill="#FFC477"/>
<path d="M212.909 7.75732C212.909 7.75732 214.64 10.4975 216.012 14.6913C216.012 14.6913 212.294 18.8851 211.499 23.5935C211.499 23.5935 204.844 19.5412 203.036 17.7402C203.036 17.7402 205.998 8.63211 207.87 7.75732H212.909Z" fill="#F7A959"/>
<path d="M214.999 7.75731C214.999 7.75731 216.794 9.71271 219.179 13.8937L221.551 15.476C221.551 15.476 222.064 14.048 221.885 13.4563C221.705 12.8645 216.371 7.74445 216.371 7.74445H214.999V7.75731Z" fill="#F7A959"/>
<path d="M222.974 21.2007C221.91 21.4194 219.448 19.464 219.371 18.8208C219.294 18.1647 224.769 17.7916 224.846 18.4477C224.923 19.1038 224.051 20.9949 222.974 21.2136V21.2007Z" fill="#42464B"/>
<path d="M213.486 14.9099C213.486 15.5532 212.973 16.0677 212.332 16.0677C211.691 16.0677 211.178 15.5532 211.178 14.9099C211.178 14.2667 211.691 13.7521 212.332 13.7521C212.973 13.7521 213.486 14.2667 213.486 14.9099Z" fill="#42464B"/>
<path d="M222.846 22.5129C222.846 22.5129 222.743 22.4614 222.743 22.41V21.2779C222.743 21.2779 222.794 21.175 222.846 21.175C222.897 21.175 222.948 21.2264 222.948 21.2779V22.41C222.948 22.41 222.897 22.5129 222.846 22.5129Z" fill="#42464B"/>
<path d="M218.641 25.0472C217.551 25.0472 216.858 24.4297 216.82 24.404C216.781 24.3654 216.769 24.3011 216.82 24.2496C216.858 24.211 216.923 24.1981 216.974 24.2496C216.974 24.2496 217.641 24.8414 218.641 24.8414C221.269 24.8414 222.731 22.3842 222.757 22.3585C222.782 22.3199 222.821 22.2942 222.859 22.3071C222.898 22.3071 222.936 22.3457 222.949 22.3842C223.116 22.9246 223.539 23.5549 223.923 23.6321C224.065 23.6578 224.193 23.6064 224.321 23.452C224.359 23.4005 224.424 23.4005 224.475 23.4391C224.526 23.4777 224.526 23.542 224.488 23.5935C224.27 23.8637 224.039 23.8765 223.885 23.8508C223.436 23.7607 223.026 23.1561 222.821 22.6673C222.41 23.259 220.962 25.0729 218.641 25.0729V25.0472Z" fill="#42464B"/>
<path d="M221.295 15.3087C221.449 15.1158 221.551 14.8842 221.551 14.614C221.551 13.9708 221.039 13.4562 220.397 13.4562C219.974 13.4562 219.615 13.7007 219.41 14.048L221.295 15.3087Z" fill="#42464B"/>
<path d="M207.356 7.20412C204.779 6.48371 195.214 17.1098 195.445 18.5635C195.675 20.0172 206.638 28.4048 207.626 27.7744C208.613 27.1441 209.921 7.9374 207.356 7.21699V7.20412Z" fill="#FFD086"/>
<path d="M186.957 84.9828C186.957 84.9828 174.327 66.4708 181.636 60.9648C190.855 54.0309 199.587 73.3019 199.587 73.3019C199.587 73.3019 210.229 57.62 216.204 60.9648C222.308 64.3739 211.55 84.9828 211.55 84.9828H186.944H186.957Z" fill="#FFC477"/>
<path d="M195.15 84.9828H211.601C211.601 84.9828 224.192 68.9665 218.871 61.9682C216.435 58.7521 212.139 61.0549 212.139 61.0549C213.883 58.6621 213.845 59.048 215.294 56.4751C213.614 54.7641 212.716 50.0557 208.806 50.0557C202.728 50.0557 195.842 65.1844 186.392 58.3791C186.392 58.4048 186.226 59.5111 186.226 59.5111C194.496 60.0772 196.227 79.0137 195.137 85.0086L195.15 84.9828Z" fill="#ED9749"/>
<path d="M203.869 48.6149C203.869 48.6149 203.702 60.283 211.011 85.4717H208.19C208.19 85.4717 201.702 75.1287 198.548 51.9468L203.869 48.6149Z" fill="#FFC477"/>
<path d="M212.807 47.6244C212.807 47.6244 213.55 57.8002 213.884 85.4846H216.705C216.705 85.4846 219.154 63.6793 218.243 49.3482L212.807 47.6244Z" fill="#FFC477"/>
<path d="M208.191 85.4717H209.627C203.639 75.2316 199.279 56.8096 199.279 56.8096C199.267 56.8611 202.152 75.0515 208.191 85.4717Z" fill="#F7A959"/>
<path d="M189.252 85.06C189.252 85.06 178.725 68.0146 180.379 62.3156C176.533 68.9923 184.777 81.4837 187.316 85.5618L189.252 85.06Z" fill="#F7A959"/>
<path d="M172.596 86.8096C172.673 88.3148 174.16 89.6784 178.571 89.807L176.712 88.7779C176.712 88.7779 176.827 88.7907 176.878 88.8036C177.93 89.1638 181.238 90.1158 185.88 89.9743L183.354 88.9322C183.469 88.9322 183.584 88.9194 183.7 88.9065C185.2 89.0094 189.931 89.1895 195.522 88.0575L192.175 87.8002C192.393 87.7616 192.598 87.723 192.816 87.6844C193.676 87.53 194.522 87.4014 195.342 87.2985C196.945 87.1698 198.869 87.1055 200.676 87.2341C204.972 87.5429 207.331 88.1475 207.331 88.1475L206.011 87.1827C208.921 87.5043 210.614 88.0189 210.614 88.0189C210.614 88.0189 207.793 82.5129 197.65 82.8473C190.496 83.0789 182.584 86.0635 182.687 85.0086L172.596 86.7967V86.8096Z" fill="#FFC477"/>
<path d="M195.342 87.2985C196.945 87.1698 198.868 87.1055 200.676 87.2341C204.972 87.5429 207.331 88.1475 207.331 88.1475L206.01 87.1827C208.357 87.44 209.908 87.8259 210.421 87.9674C209.062 87.3371 206.792 86.398 204.151 85.7419C199.856 84.6741 194.675 86.4365 194.675 86.4365L195.675 85.6261C195.675 85.6261 193.303 86.4365 187.7 87.44C182.097 88.4434 177.66 87.5686 177.66 87.5686L178.224 88.2504C178.224 88.2504 175.044 88.3148 173.865 87.0669C172.685 85.8191 174.532 83.2462 174.532 83.2462C174.365 83.4005 174.211 83.5549 174.07 83.7093C173.236 84.5455 172.557 85.7161 172.608 86.8096C172.685 88.3148 174.173 89.6784 178.583 89.807L176.724 88.7779C176.724 88.7779 176.84 88.7907 176.891 88.8036C177.942 89.1638 181.25 90.1158 185.892 89.9743L183.366 88.9323C183.481 88.9323 183.597 88.9194 183.712 88.9065C185.212 89.0094 189.944 89.1895 195.534 88.0575L192.188 87.8002C192.406 87.7616 192.611 87.723 192.829 87.6844C193.688 87.53 194.534 87.4014 195.355 87.2985H195.342Z" fill="#F7A959"/>
<path d="M213.884 85.4717H215.179C215.217 67.127 213.089 52.9117 213.089 52.9117C213.089 52.9117 213.666 67.6415 213.884 85.4717Z" fill="#F7A959"/>
<path d="M194.047 38.4005C194.047 38.4005 191.111 42.9674 189.931 43.4048C189.931 43.4048 190.124 43.7135 191.06 43.4691C191.06 43.4691 190.252 45.4117 188.38 46.4665C188.38 46.4665 189.316 47.0326 190.496 46.1578C191.829 45.1801 194.047 38.4005 194.047 38.4005Z" fill="#F7A959"/>
<path d="M178.122 45.5789C178.904 44.4854 179.648 43.4177 180.302 42.4528L177.763 38.1689C176.917 38.8765 176.019 39.6612 175.083 40.4717L178.122 45.5789Z" fill="#3AAAB9"/>
<path d="M177.52 44.5626L178.122 45.5661C178.122 45.5661 180.225 42.5558 180.302 42.44L179.712 41.4623C179.033 42.44 178.302 43.4949 177.52 44.5626Z" fill="#208E9D"/>
<path d="M153.003 20.6861C153.003 20.6861 145.528 25.0214 147.438 29.6912C149.349 34.3611 158.081 35.6089 158.902 37.693C159.735 39.777 156.824 39.9442 156.824 39.9442C161.979 41.3593 164.633 37.7701 162.723 34.7727C161.222 32.4185 157.324 30.849 155.491 27.2727C154.388 25.1115 154.991 22.024 154.991 22.024L152.99 20.6861H153.003Z" fill="#FFE18E"/>
<path d="M152.939 20.8019C152.939 20.8019 147.387 22.307 147.208 28.3662C147.208 28.3662 146.143 23.1818 152.76 20.4803L152.952 20.789L152.939 20.8019Z" fill="#FFE18E"/>
<path d="M155.901 28.0575C158.389 31.7496 164.377 32.753 163.108 36.9726C163.108 36.9726 164.287 36.0078 163.261 34.2582C161.825 31.8139 157.337 30.2187 155.504 27.2728L155.914 28.0704L155.901 28.0575Z" fill="#FFE18E"/>
<path d="M155.631 13.1732C155.695 12.9802 156.516 10.7676 159.183 9.63548C162.748 8.11747 166.62 8.63205 166.492 6.00769L167.133 6.41935C167.133 6.41935 167.774 7.47424 165.697 8.33616C163.62 9.19809 162.171 8.87647 159.375 10.0471C155.708 11.578 155.593 14.048 155.593 14.048L155.618 13.1732H155.631Z" fill="#FFE18E"/>
<path d="M163.607 6.63809C165.697 6.11064 166.171 5.08148 166.274 4.65695C166.351 4.61836 166.441 4.70841 166.441 4.70841C166.441 4.70841 166.748 5.1458 167.056 5.44169C166.838 5.99486 166.223 6.99829 164.428 7.55147C158.581 9.33963 156.76 9.63551 155.439 14.7299C155.439 14.7299 154.901 12.723 155.144 10.4588C155.362 10.3302 155.58 10.1887 155.76 10.0214C157.811 8.09177 160.953 7.30704 163.607 6.63809Z" fill="#FFE18E"/>
<path d="M169.698 55.5103C170.646 54.6484 171.608 53.6707 172.557 52.6158L168.672 46.1578C167.697 47.0198 166.8 47.8174 166.018 48.4863L169.698 55.5103Z" fill="#3AAAB9"/>
<path d="M153.516 50.5189C154.285 51.6124 155.093 52.6544 155.901 53.6064L161.465 48.6149C160.927 47.8045 160.324 46.7753 159.67 45.6432L153.516 50.5189Z" fill="#3AAAB9"/>
<path d="M148.425 41.2307L155.875 39.0824C155.195 37.976 154.503 36.9211 153.823 35.9949L147.399 37.4486C147.553 38.5935 147.912 39.88 148.425 41.2179V41.2307Z" fill="#3AAAB9"/>
<path d="M171.878 51.5095C170.929 52.5129 169.98 53.452 169.031 54.2496L169.685 55.5103C170.198 55.0472 170.711 54.5455 171.288 53.9537C171.852 53.3491 171.737 53.5035 172.532 52.6158L171.865 51.5095H171.878Z" fill="#208E9D"/>
<path d="M156.798 52.7959C155.978 51.8954 155.157 50.9048 154.362 49.837L153.516 50.506L153.541 50.5446C154.323 51.6509 155.118 52.6672 155.901 53.5935L156.798 52.783V52.7959Z" fill="#208E9D"/>
<path d="M149.105 41.0377C148.54 39.7641 148.079 38.5291 147.771 37.3713L147.412 37.4485C147.592 38.735 147.963 39.9957 148.438 41.2178L149.117 41.0249L149.105 41.0377Z" fill="#208E9D"/>
</g>
<g clip-path="url(#clip1_5663_8452)">
<path d="M-2.91254 91H106C103.399 87.6526 99.9076 84.9693 95.6871 83.3988C71.5074 74.3885 66.0092 63.8975 63.3185 57.3821C58.6931 46.1731 52.628 34.1475 40.5066 29.6334C27.9623 24.9667 13.7802 30.8 5.7353 40.8244C-2.76856 51.4321 -5.81015 65.8718 -4.82028 79.2167C-4.52332 83.2013 -3.87541 87.15 -2.91254 91Z" fill="#53BE95"/>
</g>
<g clip-path="url(#clip2_5663_8452)">
<path d="M375 95.9999H236C238.78 87.6551 245.436 81.2241 254.57 79.4827C269.004 76.7413 284.362 86.5172 297.726 77.5603C309.769 69.4827 314.12 54.3534 323.047 43.543C331.196 33.6551 343.136 28.1206 355.809 27.1551C361.878 26.6896 368.715 27.2327 374.991 29.1637V95.9999H375Z" fill="#53BE95"/>
</g>
<defs>
<clipPath id="clip0_5663_8452">
<rect width="94" height="90" fill="white" transform="translate(131)"/>
</clipPath>
<clipPath id="clip1_5663_8452">
<rect width="111" height="63" fill="white" transform="translate(-5 28)"/>
</clipPath>
<clipPath id="clip2_5663_8452">
<rect width="139" height="69" fill="white" transform="translate(236 27)"/>
</clipPath>
</defs>
</svg>
