<svg width="180" height="123" viewBox="0 0 180 123" fill="none" xmlns="http://www.w3.org/2000/svg">
<path d="M134.776 122.021C158.388 122.021 177.53 120.113 177.53 117.76C177.53 115.407 158.388 113.499 134.776 113.499C111.163 113.499 92.0215 115.407 92.0215 117.76C92.0215 120.113 111.163 122.021 134.776 122.021Z" fill="#DDD8CE"/>
<path d="M107.013 109.845C107.698 110.533 108.441 111.189 109.248 111.808C113.279 114.916 118.852 117.145 126.254 117.89C164.113 121.695 176.621 103.856 179.68 76.4154C181.042 64.186 177.854 56.1159 173.9 50.926C173.486 50.3842 173.064 49.875 172.638 49.3942C172.399 49.1213 172.152 48.8565 171.9 48.5999C166.794 43.361 159.424 40.8964 152.18 42.0941C146.49 43.0351 141.314 46.0904 137.12 52.1929C130.408 61.9536 136.759 70.3456 117.579 70.9077C102.896 71.3395 93.5957 96.4094 107.013 109.853V109.845Z" fill="#6E3E45"/>
<path d="M163.63 50.2742C163.63 50.2742 169.45 60.206 164.283 77.8657C159.115 95.5254 145.597 98.7029 141.172 98.7029C133.445 98.7029 124.465 86.8239 121.407 81.0636C118.349 75.3033 124.121 74.9611 134.926 74.1097C145.731 73.2583 152.452 46.4612 163.63 50.2742V50.2742Z" fill="#341A1B"/>
<path d="M155.51 103.868C155.596 103.868 155.681 103.836 155.746 103.767C155.867 103.636 155.863 103.433 155.734 103.31C151.868 99.6196 148.177 97.4482 145.764 96.2709C143.136 94.9958 141.444 94.5966 141.371 94.5803C141.197 94.5396 141.027 94.6496 140.986 94.8247C140.945 94.9999 141.055 95.171 141.229 95.2117C141.306 95.228 148.035 96.8453 155.291 103.775C155.352 103.836 155.433 103.864 155.514 103.864L155.51 103.868Z" fill="#341A1B"/>
<path d="M154.236 99.5462C154.342 99.5462 154.443 99.4973 154.504 99.4036C154.601 99.257 154.565 99.0533 154.415 98.9555C154.265 98.8537 150.667 96.4583 145.098 95.8473C144.924 95.8269 144.762 95.9572 144.741 96.1324C144.721 96.3117 144.851 96.4705 145.025 96.4909C150.436 97.0857 154.013 99.4688 154.05 99.4933C154.107 99.5299 154.167 99.5503 154.228 99.5503L154.236 99.5462Z" fill="#341A1B"/>
<path d="M165.662 70.5045C165.821 70.5045 165.963 70.3863 165.983 70.2193C166.449 66.4796 168.051 63.6198 169.313 61.8763C170.684 59.982 171.965 58.9676 171.978 58.9554C172.116 58.8454 172.144 58.6417 172.03 58.5032C171.921 58.3606 171.718 58.3362 171.58 58.4462C171.527 58.491 170.23 59.5176 168.806 61.477C167.492 63.2817 165.829 66.2515 165.342 70.1378C165.322 70.313 165.443 70.4759 165.622 70.5004C165.634 70.5004 165.65 70.5004 165.662 70.5004V70.5045Z" fill="#341A1B"/>
<path d="M107.013 109.845C107.698 110.533 108.44 111.189 109.248 111.808C113.908 114.619 119.59 116.469 125.853 117.19C127.796 117.414 129.755 117.524 131.718 117.524C137.124 117.524 142.543 116.676 147.654 115.014C160.941 110.692 170.529 101.441 174.654 88.9708C176.913 82.135 178.025 75.4826 177.952 69.2049C177.895 64.1779 177.084 59.375 175.542 54.9346C175.027 53.4517 174.468 52.1155 173.904 50.9179C173.49 50.376 173.068 49.8668 172.642 49.3861C172.403 49.1132 172.156 48.8484 171.904 48.5917C172.914 50.3272 173.993 52.5351 174.914 55.1994C177.291 62.0677 179.059 73.4661 174.005 88.7548C169.953 101.013 160.519 110.109 147.443 114.362C133.551 118.88 117.477 117.051 107.455 109.804C107.317 109.706 107.13 109.722 107.013 109.841V109.845Z" fill="#341A1B"/>
<path d="M109.466 69.7345C111.644 68.7649 139.354 71.8936 146.805 77.3728C147.069 79.5767 132.674 82.799 128.075 85.9928C116.459 83.6586 108.971 85.0477 108.971 85.0477C108.971 85.0477 101.719 92.5882 98.1783 95.0243C94.6374 97.4604 86.8094 104.972 86.8094 104.972L81.7354 99.6929C81.7354 99.6929 103.544 72.3824 109.47 69.7386L109.466 69.7345Z" fill="#BF632D"/>
<path d="M89.649 101.982C89.7382 102.015 89.8396 101.995 89.9126 101.921C90.0059 101.823 90.0019 101.669 89.9086 101.575L84.717 96.5398C84.6196 96.4461 84.4655 96.4501 84.3722 96.5438C84.2789 96.6416 84.2789 96.7964 84.3763 96.8901L89.5679 101.925C89.5922 101.95 89.6206 101.966 89.6531 101.978L89.649 101.982Z" fill="#A4312D"/>
<path d="M88.3837 100.756C88.4729 100.789 88.5743 100.768 88.6432 100.699C88.6757 100.662 89.5599 99.7865 95.3153 95.2728C101.582 90.3558 108.911 82.6361 108.984 82.5587C109.077 82.4609 109.073 82.3061 108.976 82.2124C108.878 82.1187 108.724 82.1228 108.631 82.2205C108.558 82.2979 101.253 89.9933 95.0152 94.8858C89.1989 99.4484 88.3309 100.32 88.2985 100.353C88.2052 100.451 88.2052 100.605 88.2985 100.699C88.3228 100.724 88.3512 100.744 88.3837 100.752V100.756Z" fill="#A4312D"/>
<path d="M76.4512 104.92L80.0083 108.427L83.8777 105.771L86.1044 104.243L82.1823 100.157L80.0245 101.95L76.4512 104.92Z" fill="#EBB088"/>
<path d="M62.1535 101.905L75.6071 115.177C75.887 115.092 76.1952 114.888 76.5197 114.603C77.7203 113.544 79.1439 111.36 80.089 110.036C80.1985 109.881 80.3039 109.739 80.3972 109.608C80.5595 109.392 80.7014 109.217 80.815 109.099C81.7316 108.162 80.7501 107.506 80.7501 107.506C78.0772 107.506 78.5031 103.974 76.9578 103.742C76.9578 103.742 76.905 103.734 76.7793 103.722C76.6536 103.706 76.4589 103.689 76.175 103.665C75.7531 103.632 75.1407 103.591 74.2849 103.551C72.2731 103.465 69.8355 102.308 67.6534 101.432C67.3857 101.326 67.1261 101.229 66.8827 101.147C66.6962 101.082 66.5136 101.025 66.3392 100.972C64.3843 100.398 63.3338 100.658 62.774 101.045C62.2386 101.416 62.1494 101.905 62.1494 101.905H62.1535Z" fill="#7C7A48"/>
<path d="M66.3389 100.972C66.4403 101.607 66.7282 102.927 67.3975 103.449C67.5273 103.551 67.8031 103.677 68.1762 103.82C69.1375 104.182 70.7437 104.638 72.1592 104.985C73.2827 105.262 74.3372 105.482 75.1282 105.612C76.422 105.82 76.7465 105.746 76.9087 105.632C77.4035 105.286 77.1359 104.439 76.7789 103.722C76.6532 103.705 76.4585 103.689 76.1746 103.665C76.5842 104.414 76.787 105.078 76.6208 105.213C76.4017 105.302 75.047 105.176 72.1876 104.471C70.0055 103.93 68.0343 103.306 67.7057 103.05C67.2717 102.711 67.0122 101.811 66.8824 101.147C66.6958 101.082 66.5133 101.025 66.3389 100.972V100.972Z" fill="#504F2C"/>
<path d="M62.1533 101.905L75.607 115.177C75.8868 115.092 76.1951 114.888 76.5196 114.603L62.7779 101.045C62.2425 101.416 62.1533 101.905 62.1533 101.905V101.905Z" fill="#504F2C"/>
<path d="M74.2363 113.821L74.6379 114.216C74.6865 113.364 74.9989 112.293 76.0291 111.34C77.4 110.069 79.0792 109.955 80.0891 110.032C80.1986 109.877 80.3041 109.735 80.4014 109.604C79.355 109.474 77.3675 109.486 75.7249 111.006C74.7393 111.918 74.354 112.945 74.2363 113.821V113.821Z" fill="#504F2C"/>
<path d="M73.7332 104.569C73.8346 104.667 73.9887 104.687 74.1144 104.614C74.2604 104.524 74.305 104.333 74.2158 104.186L73.579 103.147C73.4898 103.001 73.2992 102.956 73.1532 103.046C73.0071 103.135 72.9625 103.327 73.0518 103.473L73.6885 104.512C73.7007 104.532 73.7169 104.553 73.7372 104.573L73.7332 104.569Z" fill="#504F2C"/>
<path d="M75.2546 104.691C75.356 104.789 75.5102 104.81 75.6359 104.736C75.7819 104.647 75.8265 104.455 75.7373 104.308L75.1005 103.27C75.0113 103.123 74.8207 103.078 74.6746 103.168C74.5286 103.257 74.484 103.449 74.5732 103.596L75.21 104.634C75.2222 104.655 75.2384 104.675 75.2587 104.695L75.2546 104.691Z" fill="#504F2C"/>
<path d="M72.4109 104.231C72.5123 104.329 72.6664 104.349 72.7922 104.276C72.9382 104.186 72.9828 103.995 72.8936 103.848L72.2568 102.809C72.1675 102.663 71.9769 102.618 71.8309 102.707C71.6849 102.797 71.6403 102.989 71.7295 103.135L72.3663 104.174C72.3784 104.194 72.3947 104.215 72.4149 104.235L72.4109 104.231Z" fill="#504F2C"/>
<path d="M71.1091 103.873C71.2105 103.97 71.3647 103.991 71.4904 103.917C71.6364 103.828 71.681 103.636 71.5918 103.49L70.955 102.451C70.8658 102.304 70.6751 102.259 70.5291 102.349C70.3831 102.439 70.3385 102.63 70.4277 102.777L71.0645 103.815C71.0767 103.836 71.0929 103.856 71.1132 103.877L71.1091 103.873Z" fill="#504F2C"/>
<path d="M69.7664 103.408C69.8678 103.506 70.0219 103.526 70.1476 103.453C70.2936 103.363 70.3382 103.172 70.249 103.025L69.6122 101.986C69.523 101.84 69.3324 101.795 69.1864 101.885C69.0403 101.974 68.9957 102.166 69.085 102.312L69.7217 103.351C69.7339 103.371 69.7501 103.392 69.7704 103.412L69.7664 103.408Z" fill="#504F2C"/>
<path d="M68.4119 102.797C68.5133 102.895 68.6674 102.915 68.7931 102.842C68.9391 102.752 68.9838 102.561 68.8945 102.414L68.2577 101.375C68.1685 101.229 67.9779 101.184 67.8319 101.273C67.6859 101.363 67.6412 101.555 67.7305 101.701L68.3672 102.74C68.3794 102.76 68.3956 102.781 68.4159 102.801L68.4119 102.797Z" fill="#504F2C"/>
<path d="M131.356 22.699C131.218 23.416 131.08 24.2266 130.971 25.0007C130.853 25.7828 130.744 26.569 130.642 27.3553C130.456 28.9318 130.306 30.5084 130.188 32.0768C130.07 33.6451 130.03 35.2095 130.03 36.7493C130.022 37.5234 130.054 38.277 130.074 39.0347L130.143 40.1469L130.16 40.4157C130.168 40.4442 130.172 40.4687 130.176 40.4972C130.192 40.5461 130.196 40.5909 130.212 40.6194C130.273 40.7498 130.302 40.7824 130.46 40.929C130.618 41.0634 130.93 41.2671 131.364 41.4505C132.248 41.8252 133.538 42.0982 134.893 42.1959C136.256 42.3059 137.716 42.3019 139.184 42.2041C139.918 42.1511 140.661 42.0778 141.395 41.9882C141.764 41.9434 142.129 41.8945 142.494 41.8375L143.029 41.7478C143.196 41.7193 143.402 41.6786 143.504 41.6541C145.921 41.0471 148.371 42.5259 148.975 44.9539C149.58 47.3818 148.107 49.8424 145.69 50.4494C145.495 50.4983 145.297 50.5349 145.102 50.5553L144.814 50.5879C144.51 50.6205 144.315 50.6327 144.076 50.6531L143.398 50.6938C142.948 50.7182 142.506 50.7427 142.06 50.759C141.172 50.7916 140.283 50.7997 139.387 50.7875C137.598 50.7671 135.785 50.6693 133.915 50.3923C132.979 50.2538 132.025 50.0624 131.044 49.8057C130.062 49.5491 129.052 49.2069 128.01 48.7058C126.972 48.1966 125.881 47.5163 124.887 46.4897C123.889 45.4753 123.066 44.0536 122.721 42.5952C122.628 42.2326 122.571 41.87 122.522 41.5156L122.474 40.986L122.457 40.6439L122.401 39.3036C122.392 38.4237 122.376 37.5437 122.401 36.676C122.429 34.9406 122.538 33.2296 122.66 31.5349C122.782 29.8362 122.94 28.1537 123.131 26.4754C123.22 25.6362 123.313 24.797 123.419 23.9578L123.755 21.3995C124.035 19.2811 125.974 17.7901 128.083 18.0712C130.192 18.3523 131.677 20.2995 131.397 22.4179C131.389 22.4912 131.376 22.5646 131.36 22.6379L131.348 22.7031L131.356 22.699Z" fill="#9F6F42"/>
<path d="M91.6973 111.499L96.1385 113.772L99.0386 110.069L100.706 107.942L95.7451 105.229L94.2201 107.588L91.6973 111.499Z" fill="#EBB088"/>
<path d="M77.1567 112.928L93.9565 121.536C94.1958 121.373 94.431 121.084 94.6541 120.713C95.4856 119.341 96.1873 116.831 96.6943 115.279C96.7511 115.096 96.8078 114.929 96.8606 114.778C96.9539 114.521 97.035 114.314 97.108 114.167C97.7042 112.994 96.5685 112.668 96.5685 112.668C94.0173 113.47 93.3684 109.975 91.8271 110.223C91.8271 110.223 91.7744 110.232 91.6487 110.256C91.527 110.281 91.3323 110.321 91.0565 110.382C90.6468 110.476 90.0465 110.623 89.2191 110.847C87.2763 111.368 84.6034 111.002 82.2591 110.826C81.9711 110.806 81.6953 110.79 81.4398 110.786C81.241 110.782 81.0504 110.782 80.8719 110.786C78.8358 110.826 77.9111 111.393 77.4933 111.93C77.0958 112.444 77.1567 112.937 77.1567 112.937V112.928Z" fill="#7C7A48"/>
<path d="M80.8722 110.773C81.1602 111.348 81.8254 112.521 82.6203 112.814C82.7785 112.871 83.0787 112.908 83.4762 112.933C84.5023 112.99 86.1693 112.941 87.6214 112.843C88.7773 112.766 89.8481 112.664 90.639 112.546C91.9329 112.354 92.2249 112.187 92.3425 112.028C92.7076 111.552 92.2006 110.818 91.6489 110.244C91.5273 110.268 91.3326 110.309 91.0568 110.37C91.6733 110.961 92.0667 111.531 91.945 111.71C91.7625 111.861 90.4362 112.15 87.4916 112.338C85.2486 112.48 83.1841 112.476 82.7907 112.338C82.2756 112.146 81.7564 111.364 81.436 110.773C81.2373 110.769 81.0466 110.769 80.8682 110.773H80.8722Z" fill="#504F2C"/>
<path d="M77.1562 112.928L93.9561 121.536C94.1954 121.373 94.4306 121.084 94.6537 120.713L77.497 111.922C77.0995 112.436 77.1603 112.928 77.1603 112.928H77.1562Z" fill="#504F2C"/>
<path d="M92.2409 120.656L92.7398 120.913C92.5329 120.086 92.5126 118.97 93.2102 117.748C94.1391 116.122 95.7047 115.507 96.6943 115.279C96.7511 115.096 96.8079 114.929 96.8647 114.778C95.8264 114.969 93.9363 115.576 92.8209 117.524C92.1557 118.693 92.0908 119.785 92.2409 120.656V120.656Z" fill="#504F2C"/>
<path d="M88.9999 111.979C89.1257 112.044 89.2798 112.016 89.3771 111.906C89.4907 111.776 89.4745 111.58 89.3447 111.466L88.4281 110.668C88.2983 110.553 88.1036 110.57 87.99 110.7C87.8764 110.83 87.8927 111.026 88.0225 111.14L88.9391 111.939C88.9391 111.939 88.9797 111.971 88.9999 111.979Z" fill="#504F2C"/>
<path d="M90.4882 111.637C90.614 111.702 90.7681 111.674 90.8654 111.564C90.979 111.433 90.9628 111.238 90.833 111.124L89.9163 110.325C89.7865 110.211 89.5919 110.228 89.4783 110.358C89.3647 110.488 89.3809 110.684 89.5107 110.798L90.4274 111.596C90.4274 111.596 90.4679 111.629 90.4882 111.637Z" fill="#504F2C"/>
<path d="M87.6415 112.057C87.7673 112.122 87.9214 112.093 88.0188 111.983C88.1323 111.853 88.1161 111.657 87.9863 111.543L87.0697 110.745C86.9399 110.631 86.7452 110.647 86.6316 110.778C86.518 110.908 86.5343 111.103 86.6641 111.217L87.5807 112.016C87.5807 112.016 87.6213 112.049 87.6415 112.057Z" fill="#504F2C"/>
<path d="M86.291 112.11C86.4167 112.175 86.5708 112.146 86.6682 112.036C86.7817 111.906 86.7655 111.71 86.6357 111.596L85.7191 110.798C85.5893 110.684 85.3946 110.7 85.281 110.83C85.1675 110.961 85.1837 111.156 85.3135 111.27L86.2301 112.069C86.2301 112.069 86.2707 112.102 86.291 112.11Z" fill="#504F2C"/>
<path d="M84.871 112.065C84.9968 112.13 85.1509 112.102 85.2482 111.992C85.3618 111.861 85.3456 111.666 85.2158 111.552L84.2991 110.753C84.1694 110.639 83.9747 110.655 83.8611 110.786C83.7475 110.916 83.7638 111.112 83.8936 111.226L84.8102 112.024C84.8102 112.024 84.8508 112.057 84.871 112.065Z" fill="#504F2C"/>
<path d="M83.3945 111.894C83.5202 111.959 83.6743 111.93 83.7717 111.82C83.8853 111.69 83.869 111.494 83.7392 111.38L82.8226 110.582C82.6928 110.468 82.4981 110.484 82.3845 110.615C82.271 110.745 82.2872 110.94 82.417 111.055L83.3336 111.853C83.3336 111.853 83.3742 111.886 83.3945 111.894Z" fill="#504F2C"/>
<path d="M94.9619 105.579L101.038 108.741C101.038 108.741 105.937 102.695 108.367 99.1429C110.796 95.5906 115.684 86.7098 115.684 86.7098C115.684 86.7098 119.711 90.808 130.16 95.4806C153.303 105.84 153.327 84.8359 153.327 84.8359C152.025 85.4959 144.725 81.6787 141.289 80.5299C131.693 78.1631 123.638 76.5173 117.428 76.0773C115.931 75.9714 114.556 75.9673 113.303 76.061C111.689 76.1833 109.738 78.0816 107.718 80.8681C101.646 89.2356 94.9619 105.584 94.9619 105.584V105.579Z" fill="#FE812D"/>
<path d="M101.967 105.082C102.068 105.135 102.194 105.111 102.271 105.017C105.394 101.115 108.485 95.8431 110.967 91.6064C113.028 88.0949 114.97 84.7748 115.644 84.6078C116.191 84.4692 117.611 85.5366 119.408 86.8891C122.985 89.5777 128.396 93.6393 135.705 95.505C139.687 96.5235 143.192 96.1446 146.124 94.3888C151.182 91.358 152.78 85.1659 152.792 85.1047C152.825 84.9744 152.744 84.84 152.614 84.8074C152.484 84.7748 152.35 84.8562 152.318 84.9866C152.302 85.0477 150.752 91.0443 145.869 93.9692C143.054 95.6558 139.671 96.0143 135.822 95.0284C128.607 93.1871 123.245 89.1581 119.696 86.4939C117.57 84.897 116.289 83.9356 115.518 84.1311C114.682 84.343 113.238 86.7546 110.537 91.358C108.063 95.5784 104.981 100.833 101.882 104.712C101.797 104.818 101.813 104.972 101.918 105.058C101.93 105.07 101.947 105.078 101.959 105.086L101.967 105.082Z" fill="#BF632D"/>
<path d="M96.4709 102.369H96.475L103.309 105.738C103.431 105.799 103.577 105.746 103.638 105.624C103.699 105.502 103.65 105.351 103.524 105.294L96.69 101.925C96.5683 101.864 96.4223 101.917 96.3614 102.039C96.3046 102.162 96.3493 102.304 96.4669 102.365L96.4709 102.369Z" fill="#BF632D"/>
<path d="M164.405 58.4339C163.991 59.8964 163.594 61.3466 163.285 62.7195C163.078 63.6524 162.912 64.5486 162.811 65.3878C162.004 72.0973 159.018 82.7623 151.847 91.7857C148.858 95.5498 139.951 78.5012 135.494 75.7066C128.031 71.0259 135.145 70.647 136.346 64.5771C137.323 59.6194 137.327 60.8211 136.475 57.4481C136.374 57.0448 136.297 56.6496 136.24 56.2667C136.204 56.0059 136.175 55.7534 136.159 55.5008C135.952 52.527 137.128 50.0664 139.319 47.8584C141.967 45.1901 143.33 41.8985 144.563 41.3812C145.8 40.8597 150.521 41.206 150.521 41.206L157.019 41.7967C158.138 41.9026 159.221 42.2204 160.219 42.7337C161.829 43.5606 163.877 43.7073 165.703 45.4305C167.739 47.3533 165.962 52.9466 164.405 58.4339V58.4339Z" fill="#C0905F"/>
<path d="M153.296 52.0096L151.795 56.4256C151.795 56.4256 145.099 54.5028 140.576 53.6351L142.316 49.6183C142.316 49.6183 148.903 50.6246 153.296 52.0137V52.0096Z" fill="#9F6F42"/>
<path d="M157.956 41.7234C157.854 41.6949 157.749 41.7397 157.696 41.8293C156.106 44.5709 151.677 51.6959 148.396 52.0096C148.376 52.0096 148.355 52.0096 148.335 52.0137C147.455 52.0748 146.855 51.8589 146.563 51.3741C145.613 49.8016 147.727 45.6423 148.631 44.1595C148.688 44.0658 148.676 43.9395 148.595 43.8662C148.485 43.7643 148.319 43.7928 148.242 43.9151C148.104 44.1432 144.879 49.4798 146.169 51.6104C146.559 52.2581 147.297 52.5473 148.363 52.4699C148.388 52.4699 148.412 52.4699 148.432 52.4659C151.969 52.1277 156.479 44.8642 158.094 42.0615C158.167 41.9311 158.102 41.7682 157.96 41.7275H157.956V41.7234Z" fill="white"/>
<path d="M149.418 92.0342C149.474 92.0302 149.531 92.0016 149.572 91.9528C155.481 84.7341 158.673 75.8859 160.312 69.7304C162.084 63.0658 162.47 58.0347 162.474 57.9858C162.482 57.8595 162.388 57.7495 162.263 57.7414C162.137 57.7333 162.028 57.8269 162.019 57.9532C162.019 58.0021 161.634 62.9965 159.87 69.6245C158.243 75.7311 155.076 84.5141 149.223 91.6635C149.142 91.7613 149.158 91.9079 149.255 91.9853C149.304 92.0261 149.365 92.0424 149.422 92.0383L149.418 92.0342Z" fill="#9F6F42"/>
<path d="M148.051 80.1388C148.08 80.1388 148.108 80.1266 148.137 80.1144C148.25 80.0573 148.291 79.9188 148.234 79.8048C145.975 75.4703 143.018 72.6228 140.933 71.0014C138.67 69.2375 136.966 68.5123 136.893 68.4838C136.776 68.4349 136.642 68.492 136.593 68.606C136.545 68.7242 136.597 68.8586 136.715 68.9075C136.731 68.9156 138.447 69.6448 140.665 71.3762C142.71 72.969 145.61 75.7636 147.828 80.0207C147.873 80.1062 147.962 80.151 148.051 80.1429V80.1388Z" fill="#9F6F42"/>
<path d="M148.039 72.859C148.104 72.8509 148.164 72.8183 148.205 72.7613C148.278 72.6553 148.25 72.5128 148.148 72.4435C147.962 72.3131 143.545 69.2823 139.282 68.8464C139.156 68.8342 139.043 68.9238 139.03 69.0501C139.018 69.1764 139.107 69.2904 139.233 69.3026C143.378 69.7263 147.844 72.7898 147.889 72.8183C147.933 72.8509 147.99 72.8631 148.039 72.859V72.859Z" fill="#9F6F42"/>
<path d="M136.966 61.7703C136.966 61.7703 136.937 61.7703 136.925 61.7662C136.812 61.7418 136.743 61.6359 136.763 61.5218C136.767 61.4974 137.075 59.8638 136.438 58.2587C135.416 55.6882 134.82 52.6044 138.154 49.2109C141.338 45.9723 142.303 44.0495 142.311 44.0291C142.36 43.9273 142.486 43.8825 142.587 43.9354C142.689 43.9843 142.733 44.1106 142.681 44.2124C142.64 44.2939 141.687 46.2086 138.446 49.5042C135.287 52.7184 135.798 55.5375 136.82 58.108C137.509 59.8353 137.181 61.5381 137.169 61.6074C137.148 61.7051 137.063 61.7744 136.966 61.7744V61.7703Z" fill="#9F6F42"/>
<path d="M164.34 53.635L163.947 53.8265L163.577 53.9976C163.334 54.1076 163.091 54.2176 162.847 54.3235L162.117 54.6331L161.383 54.9305C160.402 55.3175 159.412 55.6801 158.406 56.01C156.39 56.67 154.326 57.2322 152.152 57.6355C151.608 57.7414 151.057 57.8269 150.497 57.9084C149.937 57.9858 149.369 58.0591 148.789 58.108C147.625 58.2058 146.421 58.2587 145.119 58.1813C143.813 58.0999 142.413 57.9206 140.803 57.3462C140 57.0529 139.14 56.6537 138.276 56.0304C137.846 55.7208 137.416 55.3582 137.015 54.9427L136.865 54.7838L136.792 54.7023L136.751 54.6575L136.597 54.4783C136.496 54.3602 136.39 54.2379 136.293 54.1157C135.895 53.6309 135.522 53.1462 135.178 52.6532C134.829 52.1603 134.504 51.6633 134.2 51.1663C133.892 50.6693 133.6 50.1683 133.328 49.6672C133.056 49.1661 132.797 48.661 132.549 48.1599C132.423 47.9073 132.306 47.6548 132.188 47.4022C132.075 47.1496 131.957 46.897 131.848 46.6445C131.624 46.1393 131.414 45.6301 131.211 45.125C131.008 44.6157 130.821 44.1065 130.639 43.5973C130.456 43.0881 130.282 42.5789 130.12 42.0696C129.459 40.0287 128.931 37.9755 128.501 35.9142C128.396 35.3968 128.295 34.8835 128.201 34.3662C128.108 33.8488 128.023 33.3314 127.942 32.81C127.861 32.2886 127.792 31.7671 127.731 31.2416L127.646 30.4472L127.605 30.0439L127.568 29.6121C127.406 27.7178 128.802 26.0476 130.688 25.8846C132.257 25.7461 133.673 26.6953 134.196 28.1089L134.261 28.2881L135.238 30.9279L135.749 32.2682L136.273 33.6003C136.974 35.3683 137.717 37.1078 138.495 38.7903C138.889 39.6295 139.29 40.4605 139.712 41.263C140.126 42.0696 140.564 42.8518 141.01 43.6054C141.456 44.3591 141.927 45.0761 142.401 45.7523C142.64 46.0904 142.884 46.4163 143.131 46.7219C143.379 47.0274 143.626 47.3289 143.874 47.6018C143.934 47.671 143.999 47.7403 144.06 47.8055L144.153 47.9073L144.178 47.9318L144.17 47.9195C144.17 47.9195 144.157 47.9033 144.149 47.8951C144.097 47.834 144.052 47.7933 144.028 47.7688C143.979 47.7199 144.028 47.7525 144.157 47.7933C144.291 47.834 144.51 47.887 144.774 47.9236C145.042 47.9644 145.354 48.001 145.695 48.0173C146.38 48.0499 147.167 48.0418 147.986 47.9847C148.396 47.9521 148.818 47.9236 149.244 47.8788C149.669 47.834 150.103 47.777 150.542 47.724C152.294 47.4837 154.111 47.1578 155.94 46.787C156.857 46.5997 157.777 46.4082 158.698 46.2086L160.077 45.9071L160.763 45.7564L161.099 45.6831L161.266 45.6505L161.347 45.6342C161.371 45.6301 161.399 45.6219 161.412 45.6219H162.503C164.823 45.6097 166.709 47.4918 166.717 49.822C166.721 51.5045 165.743 52.9588 164.328 53.6432L164.34 53.635Z" fill="#C0905F"/>
<path d="M134.605 33.4414C134.569 33.4088 134.54 33.3681 134.528 33.3192L133.32 29.0621C133.283 28.9277 133.36 28.7892 133.49 28.7525C133.624 28.7159 133.762 28.7933 133.798 28.9236L135.007 33.1807C135.043 33.3151 134.966 33.4536 134.837 33.4903C134.751 33.5147 134.666 33.4903 134.605 33.4414V33.4414Z" fill="#9F6F42"/>
<path d="M132.326 34.9243C132.29 34.8917 132.257 34.8469 132.245 34.7939L131.109 30.4146C131.073 30.2802 131.154 30.1417 131.288 30.1091C131.422 30.0724 131.56 30.1539 131.592 30.2883L132.728 34.6676C132.764 34.802 132.683 34.9406 132.549 34.9731C132.468 34.9935 132.383 34.9731 132.326 34.9202V34.9243Z" fill="#9F6F42"/>
<path d="M129.462 35.2543C129.418 35.2176 129.389 35.1647 129.377 35.1076L128.582 30.6102C128.558 30.4717 128.647 30.3413 128.785 30.321C128.923 30.2965 129.053 30.3861 129.073 30.5247L129.868 35.0221C129.892 35.1606 129.803 35.2909 129.665 35.3113C129.588 35.3235 129.515 35.3032 129.458 35.2543H129.462Z" fill="#9F6F42"/>
<path d="M128.375 35.0261C128.302 34.965 128.27 34.8631 128.298 34.7613C128.339 34.6269 128.477 34.5535 128.611 34.5902C132.764 35.8245 135.51 32.2967 135.538 32.26C135.623 32.15 135.778 32.1297 135.887 32.2111C135.997 32.2967 136.017 32.4515 135.936 32.5615C135.907 32.6022 135.185 33.5392 133.908 34.3213C132.723 35.0464 130.817 35.7675 128.469 35.0709C128.436 35.0587 128.404 35.0424 128.379 35.022L128.375 35.0261Z" fill="#9F6F42"/>
<path d="M141.577 52.1277C141.484 52.0463 141.46 51.9077 141.529 51.7978C142.665 50.0297 142.401 47.064 142.401 47.0355C142.389 46.897 142.49 46.7748 142.628 46.7626C142.766 46.7504 142.888 46.8522 142.9 46.9907C142.912 47.1211 143.184 50.1601 141.951 52.0748C141.878 52.1929 141.719 52.2255 141.606 52.1481C141.598 52.144 141.59 52.1359 141.582 52.1277H141.577Z" fill="#9F6F42"/>
<path d="M143.638 51.0278C143.585 50.983 143.549 50.9138 143.549 50.8364C143.549 50.8364 143.52 49.1335 142.498 48.0499C142.405 47.9481 142.409 47.7892 142.506 47.6955C142.608 47.6018 142.766 47.6018 142.859 47.7037C144.019 48.9339 144.048 50.7549 144.048 50.8323C144.048 50.9708 143.938 51.0849 143.8 51.0849C143.739 51.0849 143.683 51.0645 143.638 51.0238V51.0278Z" fill="#9F6F42"/>
<path d="M161.805 55.0486C161.091 55.2197 144.238 59.2609 139.392 57.2647C138.982 57.0977 138.576 56.8614 138.179 56.5763C137.822 56.3237 137.469 56.0304 137.128 55.7167C137.108 55.4682 137.096 55.2238 137.092 54.9834C137.891 55.7859 138.739 56.454 139.582 56.8003C144.279 58.7394 161.517 54.6005 161.691 54.5597C161.825 54.5272 161.959 54.6127 161.991 54.7431C162.028 54.8775 161.939 55.016 161.805 55.0486V55.0486Z" fill="#9F6F42"/>
<path d="M162.137 24.5607C161.638 27.3349 163.48 29.991 166.242 30.4921C169.004 30.9932 171.649 29.1437 172.147 26.3695C172.646 23.5952 170.805 20.9391 168.043 20.4381C165.281 19.937 162.636 21.7865 162.137 24.5607Z" fill="#341A1B"/>
<path d="M153.603 23.9863C154.146 23.7459 154.564 23.2652 155.087 22.9434C155.087 22.9434 158.993 19.8759 164.773 24.6829C168.894 28.113 168.058 32.4434 165.43 36.0568C163.605 38.5662 160.518 39.8087 157.472 39.2588C150.192 37.943 145.738 27.4979 153.599 23.9863H153.603Z" fill="#341A1B"/>
<path d="M151.401 30.8058C151.401 30.8058 150.788 29.0215 149.628 30.1133C148.468 31.205 147.905 34.1178 149.799 34.3459L151.397 30.8058H151.401Z" fill="#FF7D5B"/>
<path d="M151.461 38.7699L149.892 42.3671C149.892 42.3671 150.508 46.2168 157.817 44.6117C158.036 43.2348 158.397 40.8394 159.277 39.5562C159.277 39.5562 158.79 39.5399 157.939 39.6825C157.772 39.711 157.59 39.6988 157.399 39.7028C155.712 39.7476 153.246 39.6295 151.465 38.7659L151.461 38.7699Z" fill="#EBB088"/>
<path d="M151.461 38.77L150.719 40.4769C152.434 40.7416 155.606 40.9861 157.938 39.6866C157.768 39.6947 157.59 39.7028 157.399 39.7069C155.712 39.7517 153.246 39.6336 151.465 38.77H151.461Z" fill="black"/>
<path d="M148.78 36.3257C150.63 40.7579 158.997 39.6051 159.265 39.5684H159.273C159.447 39.3036 159.618 39.0388 159.776 38.7781C161.143 36.5538 162.031 34.3418 162.611 32.1338C163.593 29.9503 163.074 27.3594 161.285 25.7788C159.427 24.1411 157.119 24.3367 155.813 24.243C153.842 24.1004 151.851 25.9499 150.581 29.1966C149.02 33.1848 148.322 35.2258 148.78 36.3257V36.3257Z" fill="#EBB088"/>
<path d="M160.191 25.0292C160.191 25.0292 158.163 21.3547 154.528 22.0228C150.501 22.7642 150.505 26.4224 151.827 26.6628C153.145 26.9031 156.025 25.3592 156.025 25.3592C156.025 25.3592 157.964 29.9666 161.659 30.4962C165.354 31.0258 163.727 25.4529 160.195 25.0292H160.191Z" fill="#341A1B"/>
<path d="M153.774 27.0376C153.774 27.0376 154.39 27.3513 153.936 27.8564C153.482 28.3615 152.443 27.2046 151.097 27.9338C151.097 27.9338 151.255 26.3613 153.774 27.0376Z" fill="#341A1B"/>
<path d="M156.686 28.1782C156.686 28.1782 156.017 27.9908 156.013 28.6711C156.013 29.3514 157.55 29.2048 158.053 30.655C158.053 30.655 158.998 29.3881 156.686 28.1782V28.1782Z" fill="#341A1B"/>
<path d="M155.103 32.8752C154.986 33.1767 155.509 33.6615 156.272 33.9588C157.034 34.2562 157.748 34.2562 157.861 33.9548C157.979 33.6533 157.456 33.1685 156.693 32.8711C155.931 32.5738 155.217 32.5738 155.103 32.8752Z" fill="#FF7D5B"/>
<g opacity="0.8">
<path opacity="0.8" d="M149.276 31.205C149.377 31.2579 149.486 31.3068 149.6 31.3516C150.363 31.649 151.072 31.645 151.19 31.3476C151.308 31.0461 150.784 30.5613 150.022 30.2639C149.92 30.2232 149.815 30.1906 149.718 30.158L149.271 31.2091L149.276 31.205Z" fill="#FF7D5B"/>
</g>
<path d="M155.494 31.1194C155.332 31.535 155.388 31.9423 155.62 32.032C155.851 32.1216 156.167 31.8609 156.329 31.4453C156.492 31.0298 156.435 30.6224 156.204 30.5328C155.973 30.4432 155.656 30.7039 155.494 31.1194Z" fill="black"/>
<path d="M151.418 29.5225C151.255 29.938 151.312 30.3454 151.543 30.435C151.775 30.5247 152.091 30.2639 152.253 29.8484C152.416 29.4329 152.359 29.0255 152.128 28.9359C151.896 28.8463 151.58 29.107 151.418 29.5225Z" fill="black"/>
<path d="M151.872 34.2481C151.397 34.0607 150.955 33.7103 150.671 33.087C150.63 32.9934 150.671 32.8874 150.76 32.8467C150.854 32.806 150.959 32.8467 151 32.9363C151.766 34.6391 153.936 33.9466 154.029 33.9181C154.123 33.8855 154.228 33.9385 154.261 34.0362C154.293 34.134 154.24 34.2358 154.143 34.2684C154.127 34.2725 152.914 34.6595 151.868 34.2521L151.872 34.2481Z" fill="black"/>
<path d="M152.642 31.8201C152.443 31.7427 152.326 31.6572 152.313 31.649C152.273 31.6205 152.244 31.5716 152.24 31.5228C152.232 31.4739 152.248 31.4209 152.281 31.3802L153.607 29.8199C153.672 29.7425 153.786 29.7344 153.863 29.7996C153.94 29.8647 153.948 29.9788 153.883 30.0562L152.703 31.4454C152.869 31.5187 153.141 31.6042 153.453 31.5676C153.554 31.5553 153.644 31.6246 153.656 31.7264C153.668 31.8283 153.599 31.9179 153.498 31.9301C153.153 31.9709 152.853 31.8975 152.638 31.8161L152.642 31.8201Z" fill="black"/>
<path d="M158.576 37.3645C158.576 37.4175 158.629 38.8922 159.266 39.5684H159.274C159.448 39.3036 159.619 39.0388 159.777 38.7781C159.748 38.7618 159.018 38.3178 158.576 37.3645Z" fill="black"/>
<path d="M160.446 34.7858C160.446 34.7858 162.956 33.2093 163.484 35.4254C163.922 37.2545 160.584 40.2691 159.115 38.2119L160.446 34.7818V34.7858Z" fill="#EBB088"/>
<path d="M159.959 38.1426C159.906 38.4319 160.101 38.7089 160.389 38.7618C160.677 38.8148 160.953 38.6193 161.005 38.33C161.058 38.0408 160.863 37.7638 160.575 37.7108C160.287 37.6579 160.012 37.8534 159.959 38.1426Z" fill="white"/>
<path d="M159.602 37.6334C159.602 37.6334 159.59 37.6293 159.586 37.6252C159.497 37.5804 159.465 37.4664 159.509 37.3808C160.45 35.5721 162.288 35.5354 162.365 35.5354C162.466 35.5354 162.547 35.6169 162.547 35.7146C162.547 35.8165 162.466 35.898 162.369 35.898C162.3 35.898 160.669 35.9346 159.834 37.5478C159.789 37.6293 159.692 37.666 159.607 37.6334H159.602Z" fill="black"/>
<path d="M161.582 37.2179C161.545 37.2016 161.513 37.1771 161.488 37.1364C161.387 36.9572 161.054 36.4887 160.734 36.4479C160.632 36.4357 160.563 36.3461 160.576 36.2443C160.588 36.1424 160.677 36.0732 160.778 36.0854C161.338 36.1546 161.76 36.8716 161.805 36.9531C161.853 37.0427 161.825 37.1527 161.736 37.2016C161.687 37.2301 161.63 37.2301 161.582 37.2138V37.2179Z" fill="black"/>
<path d="M161.532 30.0643C161.532 30.0643 158.957 34.4966 160.133 34.9854C161.309 35.4702 163.215 34.0974 163.804 30.0521L161.528 30.0643H161.532Z" fill="#341A1B"/>
<path d="M160.928 30.3332L160.364 32.2072C160.088 33.1278 159.667 34.0037 159.103 34.7777C158.892 35.0669 158.669 35.3276 158.466 35.4824C156.296 37.1323 156.641 39.7436 158.275 40.7865C158.275 40.7865 157.196 37.7189 159.281 36.3053C160.989 35.1484 160.766 35.4865 162.124 34.3744C163.264 33.4415 164.083 29.6774 160.936 30.3292L160.928 30.3332Z" fill="#341A1B"/>
<path d="M148.306 28.4959L150.467 29.4288L150.35 29.7343H150.346L148.176 28.7933C148.095 28.7566 148.054 28.6629 148.091 28.5774C148.127 28.4959 148.22 28.4511 148.306 28.4918V28.4959Z" fill="white"/>
<path d="M153.972 30.6143C154.524 29.1925 156.126 28.4837 157.541 29.0377C158.957 29.5918 159.662 31.2009 159.111 32.6226C158.559 34.0444 156.957 34.7532 155.542 34.1992C154.126 33.6452 153.42 32.036 153.972 30.6143ZM154.276 30.7324C153.789 31.9871 154.41 33.4048 155.659 33.8937C156.908 34.3825 158.32 33.7592 158.807 32.5045C159.293 31.2498 158.673 29.8321 157.424 29.3433C156.174 28.8544 154.763 29.4777 154.276 30.7324Z" fill="white"/>
<path d="M147.905 28.2393C148.456 26.8175 150.058 26.1087 151.474 26.6627C152.889 27.2168 153.595 28.8259 153.043 30.2476C152.492 31.6694 150.89 32.3782 149.474 31.8242C148.059 31.2702 147.353 29.661 147.905 28.2393ZM148.209 28.3574C147.722 29.6121 148.343 31.0298 149.592 31.5187C150.841 32.0075 152.253 31.3842 152.739 30.1295C153.226 28.8748 152.605 27.4571 151.356 26.9683C150.107 26.4794 148.695 27.1027 148.209 28.3574Z" fill="white"/>
<path d="M161.926 34.3458C161.926 34.3458 161.962 34.3581 161.983 34.3581C162.072 34.3581 162.145 34.2847 162.145 34.1951C162.157 32.1542 159.111 32.0075 159.079 32.0075C158.989 32.0075 158.912 32.0727 158.908 32.1664C158.908 32.256 158.973 32.3334 159.066 32.3375C159.095 32.3375 161.829 32.4678 161.82 34.1951C161.82 34.2644 161.865 34.3255 161.926 34.3499V34.3458Z" fill="white"/>
<path d="M153.027 29.7832C153.068 29.7995 153.112 29.7995 153.153 29.7832C153.741 29.5184 154.24 30.1336 154.244 30.1377C154.301 30.2069 154.402 30.2191 154.475 30.1621C154.544 30.1051 154.556 30.0032 154.5 29.9299C154.272 29.6447 153.672 29.1844 153.019 29.4777C152.938 29.5144 152.901 29.6121 152.938 29.6936C152.954 29.7344 152.991 29.7629 153.027 29.7792V29.7832Z" fill="white"/>
<path d="M129.743 19.3544C129.743 19.3544 127.966 21.6154 125.667 22.1205C123.367 22.6257 120.828 22.536 119.793 23.0127C118.759 23.4893 117.218 24.3081 117.25 25.2288C117.283 26.1535 118.313 27.0579 116.966 27.6119C115.62 28.166 115.076 26.842 114.586 26.011C114.099 25.1758 114.618 24.41 115.437 22.9353C116.261 21.4606 116.743 20.9147 118.041 20.5032C119.019 20.1936 120.146 18.9674 120.775 17.6231C121.404 16.2788 128.437 12.4454 129.739 19.3585L129.743 19.3544Z" fill="#341A1B"/>
<path d="M137.619 16.8246C137.619 16.8246 139.136 17.839 140.406 21.0939C141.675 24.3489 141.594 28.3004 140.953 29.8118C140.053 31.9301 138.937 30.7772 138.743 28.6589C138.552 26.5405 137.36 21.4361 135.474 19.7089C133.588 17.9816 136.171 15.3988 137.619 16.8246V16.8246Z" fill="#341A1B"/>
<path d="M136.544 16.3928C137.566 19.4889 140.714 20.8128 141.144 20.8047C141.574 20.7965 143.277 21.982 144.117 22.589C144.956 23.2 146.076 22.6745 146.23 22.092C146.384 21.5094 144.737 21.0613 143.557 19.884C142.381 18.7067 143.233 17.452 143.233 17.452C143.634 18.226 145.557 19.0326 146.924 19.8677C148.294 20.7028 149.15 19.8799 150.404 19.0245C150.659 18.8534 150.898 18.6415 151.113 18.4052C151.969 17.4887 152.448 16.2543 151.852 15.904C151.685 15.8062 151.422 15.6758 151.097 15.521C150.14 15.0607 148.684 14.3885 147.844 13.7775C147.702 13.6756 147.577 13.5738 147.475 13.476C146.879 12.9057 146.672 12.1154 146.275 11.488C146.064 11.1499 145.796 10.8647 145.39 10.6773C144.226 10.1518 142.673 10.3107 142.673 10.3107C142.673 10.3107 139.566 10.7792 138.264 11.3332C136.962 11.8832 135.518 13.2968 136.54 16.3928H136.544Z" fill="#6E3E45"/>
<path d="M151.106 15.5251C150.737 16.0791 150.319 17.1179 151.122 18.4093C151.978 17.4927 152.456 16.2584 151.86 15.908C151.694 15.8102 151.43 15.6799 151.106 15.5251V15.5251Z" fill="#341A1B"/>
<path d="M117.311 17.3257C117.891 18.2871 118.735 19.2526 119.846 20.1732C122.146 22.0797 125.598 23.7785 130.246 24.8051C131.99 25.188 133.58 25.0699 134.979 24.6788C139.116 23.5219 141.615 19.9858 141.615 19.9858L136.679 13.696C136.679 13.696 135.559 13.7856 133.641 13.2804C132.947 13.0971 132.148 12.8364 131.264 12.4657C128.676 11.3862 126.121 9.78517 123.639 9.31261C122.913 9.1741 122.187 9.13337 121.473 9.23114C118.265 9.66703 115.527 14.3763 117.307 17.3298L117.311 17.3257Z" fill="#6E3E45"/>
<path d="M118.402 12.2824C118.402 12.2824 112.784 10.2618 115.035 4.11859C115.076 4.0086 115.12 3.89453 115.165 3.78047C117.753 -2.62347 123.001 1.04698 123.001 1.04698C123.001 1.04698 119.509 0.692564 118.187 3.80084C117.96 4.32635 117.801 4.95371 117.728 5.6992C117.229 10.8403 122.389 10.2088 122.389 10.2088L118.402 12.2824Z" fill="#6E3E45"/>
<path d="M115.035 4.12268C115.076 4.01269 115.12 3.89863 115.165 3.78456C117.753 -2.61938 123.001 1.05107 123.001 1.05107C123.001 1.05107 119.509 0.696656 118.187 3.80493C117.83 3.64606 117.376 3.61346 116.808 3.82937C116.183 4.06973 115.567 4.16342 115.031 4.12676L115.035 4.12268Z" fill="#341A1B"/>
<path d="M126.676 16.9102C126.676 16.9102 124.9 19.1711 122.6 19.6762C120.3 20.1814 117.761 20.0918 116.727 20.5684C115.693 21.045 114.151 21.8638 114.184 22.7845C114.216 23.7093 115.246 24.6136 113.9 25.1676C112.553 25.7217 112.01 24.3977 111.519 23.5667C111.028 22.7356 111.551 21.9657 112.371 20.491C113.19 19.0163 113.677 18.4704 114.975 18.059C115.952 17.7494 117.08 16.5232 117.708 15.1788C118.337 13.8345 125.37 10.0011 126.672 16.9142L126.676 16.9102Z" fill="#6E3E45"/>
<path d="M122.633 10.1925C122.9 12.2864 124.693 11.0032 125.383 13.3252C126.072 15.6432 127.35 17.1668 128.343 15.8021C129.337 14.4374 130.883 14.3844 132.383 14.7511C133.312 14.9792 133.576 14.03 133.645 13.2764C132.951 13.093 132.152 12.8323 131.268 12.4616C128.68 11.3821 126.125 9.78109 123.643 9.30853C122.973 9.47963 122.58 9.77294 122.633 10.1925V10.1925Z" fill="#341A1B"/>
<path d="M119.846 20.1733C122.145 22.0798 125.597 23.7785 130.245 24.8051C131.989 25.1881 133.579 25.0699 134.979 24.6788C134.841 24.1655 134.488 23.4893 133.823 22.5931C133.823 22.5931 132.602 21.8476 129.734 22.3935C126.867 22.9393 125.544 22.2305 123.374 20.8902C121.517 19.7455 120.434 19.4074 119.846 20.1773V20.1733Z" fill="#341A1B"/>
<path d="M128.185 28.4715C128.968 29.0499 132.517 29.824 134.078 27.0334C135.526 24.4466 136.313 23.7255 137.116 21.705C137.81 19.9532 136.492 20.8984 135.271 21.8068C134.05 22.7153 133.786 23.3671 133.255 22.1123C132.724 20.8535 132.817 15.0892 132.01 13.81C131.199 12.5309 131.069 19.8636 131.069 19.8636C131.069 19.8636 130.16 13.6837 129.325 13.4515C128.327 13.1704 128.923 19.827 128.923 19.827C128.923 19.827 127.402 14.69 127.001 14.7592C126.218 14.8936 126.928 20.2466 126.928 20.2466C126.928 20.2466 125.703 16.7676 125.212 17.2116C124.725 17.6597 125.484 24.744 128.181 28.4674L128.185 28.4715Z" fill="#EBB088"/>
<path d="M135.842 18.0875C135.842 18.0875 137.363 18.8371 137.891 22.1286C138.442 25.5791 138.552 29.217 137.712 31.3598C136.872 33.5066 135.571 32.3415 135.376 30.2232C135.185 28.1048 134.402 24.6299 133.34 22.2997C131.924 19.1874 134.398 16.6658 135.842 18.0875V18.0875Z" fill="#6E3E45"/>
<path d="M144.656 10.437C144.656 10.437 145.021 11.4228 143.821 12.425C142.62 13.4271 141.943 17.2116 139.761 17.7657C137.579 18.3197 135.972 17.2605 135.307 16.1891C134.253 14.4904 137.303 10.2048 138.374 10.2862C139.444 10.3677 142.831 9.06819 144.656 10.441V10.437Z" fill="#341A1B"/>
<path d="M143.054 19.1222C143.054 19.1222 145.508 19.607 146.611 20.8983C147.71 22.1897 147.037 23.6074 146.303 23.8396C145.572 24.0677 146.453 21.8598 145.751 21.5583C145.049 21.2568 143.382 20.3321 143.054 19.1222V19.1222Z" fill="#FB705F"/>
<path d="M146.262 14.3926C146.307 14.7796 146.518 15.0729 146.733 15.0485C146.948 15.024 147.09 14.69 147.045 14.303C147 13.916 146.789 13.6227 146.574 13.6471C146.359 13.6716 146.217 14.0056 146.262 14.3926Z" fill="#341A1B"/>
<path d="M41.497 122.021C57.6993 122.021 70.8339 120.113 70.8339 117.76C70.8339 115.407 57.6993 113.499 41.497 113.499C25.2947 113.499 12.1602 115.407 12.1602 117.76C12.1602 120.113 25.2947 122.021 41.497 122.021Z" fill="#DDD8CE"/>
<path d="M50.3104 63.6483C50.3104 63.6483 56.7351 59.0735 59.5297 59.269C62.3242 59.4646 66.8831 59.6846 71.2555 60.9719C75.6238 62.2632 72.0139 63.9131 69.5479 64.0353C67.0778 64.1575 63.5004 64.5975 61.3062 64.5445C59.1119 64.4916 53.466 68.7405 50.6511 67.9054C47.8363 67.0703 47.9255 64.5038 50.3145 63.6483H50.3104Z" fill="#D18337"/>
<path d="M36.9903 93.3297C36.9903 93.3297 37.7569 101.159 35.0678 103.282C32.3787 105.404 29.0001 106.907 27.9496 108.187C26.8991 109.466 24.3316 113.837 24.9603 115.022C25.5849 116.208 27.9374 116.452 26.53 118.037C25.1226 119.618 22.7174 118.436 21.5533 117.658C20.3892 116.876 22.0603 113.307 22.2063 110.859C22.3523 108.407 22.543 106.802 24.3722 106.04C26.2014 105.282 28.2375 103.196 28.2132 101.037C28.1889 98.8781 30.9307 85.1211 36.9944 93.3337L36.9903 93.3297Z" fill="#D18337"/>
<path d="M36.4191 94.3603C43.225 90.1766 43.6711 84.4692 47.6784 77.7231C48.3963 76.5173 49.1386 75.4173 49.8889 74.4193C51.3896 72.4231 55.0076 70.9159 58.9743 62.6991C58.2564 62.5158 54.7723 62.9028 54.1112 62.4995C51.6938 61.0329 49.601 62.7969 48.7046 60.0104C48.1935 58.4135 45.7884 58.1121 46.3156 56.6292C45.2895 57.558 44.6121 59.5786 43.8699 60.1571C40.8806 62.4954 39.5787 63.3998 35.0684 67.0499C31.0327 70.317 28.9236 72.9853 19.1447 83.8622C9.36165 94.7392 19.6476 103.987 27.8772 103.449C34.168 103.037 32.5578 99.1103 34.5979 96.0794C35.0157 95.4561 35.5916 94.8695 36.4191 94.3603V94.3603Z" fill="#E29D50"/>
<path d="M68.7535 44.1188C68.3074 44.0128 67.5367 44.1636 66.6282 44.4284C66.2794 44.5302 65.9144 44.6483 65.5331 44.7746C63.9148 45.3164 62.1058 46.0253 60.885 46.3023C60.7917 46.3227 60.6984 46.343 60.6091 46.3593C58.4838 46.7504 56.829 46.0008 54.7118 45.4875C53.3368 45.1535 51.5075 46.2371 50.3232 47.1048C49.6053 47.6303 49.1267 48.0703 49.1267 48.0703C47.7477 48.6936 46.7458 53.3051 45.9062 57.2566C46.036 57.9288 46.2429 58.5806 46.5511 59.1998C47.699 61.5259 50.0596 62.7847 52.5378 63.1676C53.9939 63.3957 55.5432 63.408 57.0074 63.2328C57.7091 63.1513 58.3784 62.9843 58.9786 62.7032C59.4694 60.7152 60.0616 59.3587 60.4591 58.8046C61.3919 57.5132 67.0987 57.0488 67.9505 55.7778C68.8022 54.5068 69.9906 53.8346 69.1551 53.2888C68.3196 52.7429 64.7625 54.1646 63.3591 54.3765C61.9598 54.5924 59.9926 53.3173 61.3149 52.9995C63.1522 52.5596 67.2244 50.6327 68.4534 49.1743C68.8793 48.6691 69.2078 47.9481 69.3984 47.2026C69.4836 46.8808 69.5404 46.5508 69.5688 46.2371C69.6621 45.1861 69.4309 44.2776 68.7535 44.1188V44.1188Z" fill="#E29D50"/>
<path d="M36.4189 94.3603C35.5915 94.8695 35.0156 95.4561 34.5978 96.0794C30.9474 94.1688 33.1863 90.6817 38.0413 87.936C42.9004 85.1862 43.0261 77.8575 45.3259 74.3622C47.151 71.5839 49.1466 73.5108 49.8888 74.4233C49.1385 75.4173 48.3962 76.5173 47.6783 77.7272C43.671 84.4733 43.2289 90.1766 36.4189 94.3644V94.3603Z" fill="#D18337"/>
<path d="M58.6211 50.9219C54.338 52.4048 50.0752 47.5366 50.0752 47.5366C50.0752 47.5366 50.1523 47.3696 50.3186 47.1008C51.5029 46.2371 53.3321 45.1494 54.7071 45.4835C56.8243 46.0008 58.4792 46.7504 60.6045 46.3553C61.0344 48.0418 60.9817 50.099 58.6211 50.9179V50.9219Z" fill="#D18337"/>
<path d="M57.4448 48.5021C57.9153 48.7506 58.4101 48.7424 58.548 48.4736C58.69 48.2088 58.4223 47.7892 57.9518 47.5407C57.4813 47.2922 56.9865 47.3003 56.8486 47.5651C56.7066 47.8299 56.9743 48.2495 57.4448 48.498V48.5021Z" fill="#341A1B"/>
<path d="M69.5646 46.2371C68.0558 47.2392 67.0905 45.5975 66.624 44.4284C67.5326 44.1636 68.3032 44.0128 68.7494 44.1188C69.4267 44.2776 69.6579 45.1861 69.5646 46.2371Z" fill="#341A1B"/>
<path d="M50.9191 46.1434C48.8668 46.7056 47.293 48.4125 46.997 50.5268C46.8834 51.3334 46.9442 52.2418 47.3093 53.2317C48.7735 57.1833 50.9637 60.9718 53.5068 61.0452C56.0499 61.1144 56.857 57.4481 55.8227 55.3256C54.7885 53.1991 51.4139 47.2881 52.2859 45.7686L50.915 46.1434H50.9191Z" fill="#341A1B"/>
<path d="M62.4621 54.4539C62.4621 54.4539 63.7072 52.641 66.7573 52.2703C69.8074 51.8996 71.6975 53.1666 71.7502 54.8897C71.803 56.617 70.7484 56.3685 69.994 55.7249C69.2396 55.0812 67.7754 53.3336 66.0475 53.8469C64.3197 54.3602 62.458 54.4498 62.458 54.4498L62.4621 54.4539Z" fill="#FB705F"/>
<path d="M16.9257 96.165C16.9257 96.165 12.7845 103.6 4.73747 98.9881C4.59145 98.9026 4.44544 98.817 4.29537 98.7233C-4.03966 93.5741 2.32011 87.0398 2.32011 87.0398C2.32011 87.0398 1.00192 91.8713 5.03355 94.4703C5.71496 94.9103 6.55454 95.2851 7.57665 95.5621C14.6381 97.4727 15.5507 89.9688 15.5507 89.9688L16.9257 96.165Z" fill="#E29D50"/>
<path d="M4.73747 98.9881C4.59145 98.9026 4.44544 98.817 4.29537 98.7233C-4.03966 93.5741 2.32011 87.0398 2.32011 87.0398C2.32011 87.0398 1.00192 91.8713 5.03355 94.4703C4.72936 94.9388 4.57523 95.5702 4.74152 96.4176C4.9281 97.3546 4.91999 98.2467 4.74152 98.9881H4.73747Z" fill="#BA6129"/>
<path d="M34.2483 96.9227C34.2483 96.9227 33.4168 101.025 30.7642 103.192C28.1116 105.359 24.7573 106.916 23.7271 108.215C22.6969 109.511 20.2025 113.922 20.8474 115.1C21.4923 116.277 23.8488 116.481 22.4657 118.086C21.0826 119.691 18.6612 118.55 17.4809 117.788C16.3047 117.027 17.919 113.43 18.0244 110.977C18.1299 108.525 18.2962 106.916 20.1133 106.125C21.9303 105.335 23.9299 103.217 23.8691 101.058C23.8083 98.8984 28.0508 88.8118 34.2483 96.9227V96.9227Z" fill="#E29D50"/>
<path d="M49.2355 67.8279C49.2355 67.8279 55.5101 64.2471 58.3046 64.4427C61.0992 64.6382 65.6581 64.8582 70.0305 66.1455C74.3987 67.4369 70.7889 69.0867 68.3229 69.2089C65.8528 69.3312 62.2754 69.7711 60.0812 69.7182C57.8869 69.6652 52.241 73.9141 49.4261 73.079C46.6153 72.2439 46.8465 68.6834 49.2355 67.8279Z" fill="#E29D50"/>
<path d="M84.1772 36.7697C84.6437 38.0244 84.5098 39.3565 83.9177 40.4524C83.8365 40.6031 83.7433 40.7538 83.6419 40.8964C83.143 41.6052 82.4372 42.1755 81.5652 42.5014C80.6932 42.8273 79.7887 42.8599 78.9491 42.6522C78.7788 42.6114 78.6165 42.5585 78.4543 42.4974C77.2983 42.0574 76.3289 41.1408 75.8625 39.882C75.388 38.6029 75.538 37.2382 76.1586 36.1342C76.2478 35.9753 76.3452 35.8246 76.4547 35.6779C76.9495 35.0057 77.635 34.4639 78.4746 34.1503C79.3101 33.8366 80.1821 33.7958 80.9933 33.9792C81.1718 34.0199 81.3462 34.0688 81.5125 34.1299C82.7009 34.5576 83.7027 35.4865 84.1772 36.7697V36.7697Z" fill="#7C7A48"/>
<path d="M78.9536 42.6522C78.7833 42.6115 78.621 42.5585 78.4588 42.4974C78.8157 40.9453 78.4588 39.3321 77.3921 37.6863C77.0027 37.0874 76.5646 36.5619 76.1631 36.1342C76.2523 35.9753 76.3497 35.8246 76.4592 35.6779C76.9013 36.1383 77.3921 36.7208 77.8301 37.397C78.9739 39.161 79.3511 40.9453 78.9577 42.6481L78.9536 42.6522Z" fill="#504F2C"/>
<path d="M83.9177 40.4524C83.8365 40.6031 83.7433 40.7539 83.6419 40.8964C82.2304 39.8698 81.3543 38.2689 81.0744 36.1831C80.9649 35.3846 80.9609 34.6188 80.9933 33.9792C81.1718 34.0199 81.3462 34.0688 81.5125 34.1299C81.4841 34.7206 81.4963 35.4091 81.5936 36.122C81.8572 38.0611 82.64 39.5114 83.9177 40.4483V40.4524Z" fill="#504F2C"/>
</svg>
