<svg width="19" height="20" viewBox="0 0 19 20" fill="none" xmlns="http://www.w3.org/2000/svg">
<path d="M8.76733 0.0991557L1.01699 3.70267C0.766484 3.81967 0.57537 4.03116 0.487516 4.28861C0.178154 5.19276 0 6.16483 0 7.17924C0 16.7311 8.86124 19.9449 8.86124 19.9449C9.0847 20.0233 9.32909 20.0233 9.55255 19.9449C9.55255 19.9449 18.4138 16.7311 18.4138 7.17924C18.4138 6.16483 18.2356 5.19276 17.9263 4.28861C17.8384 4.03116 17.6473 3.81967 17.3968 3.70267L9.64647 0.0991557C9.37688 -0.0387443 8.99128 -0.0272343 8.76733 0.0991557V0.0991557ZM9.2069 2.11087L16.0481 5.28861C16.2227 5.89747 16.3678 6.52015 16.3678 7.17924C16.3678 14.9245 10.1555 17.547 9.2069 17.9078C8.25828 17.547 2.04598 14.9245 2.04598 7.17924C2.04598 6.52015 2.19109 5.89747 2.36566 5.28861L9.2069 2.11087Z" fill="#53BE95"/>
<path d="M12.4736 6.41164L8.73127 11.3999L6.91107 9.34719C6.54075 8.93049 5.89506 8.8859 5.46849 9.24758C5.0416 9.60901 4.99509 10.2402 5.36459 10.6577L8.02397 13.6577C8.45374 14.1433 9.23365 14.1128 9.62238 13.5952L14.1239 7.59524C14.4586 7.14981 14.3601 6.5235 13.9042 6.1968C13.4199 5.87601 12.8164 5.93053 12.4736 6.41164V6.41164Z" fill="#53BE95"/>
</svg>
