<svg width="72" height="69" viewBox="0 0 72 69" fill="none" xmlns="http://www.w3.org/2000/svg">
<g clip-path="url(#clip0_5663_9703)">
<path d="M32.8375 68.3148C14.7311 68.3148 0 53.8144 0 35.9916C0 18.1687 14.7311 3.67166 32.8375 3.67166C50.944 3.67166 65.6751 18.172 65.6751 35.9949C65.6751 53.8177 50.944 68.3181 32.8375 68.3181V68.3148ZM32.8375 6.99743C16.5928 6.99743 3.3787 20.0045 3.3787 35.9916C3.3787 51.9786 16.5928 64.989 32.8375 64.989C49.0823 64.989 62.2964 51.9819 62.2964 35.9916C62.2964 20.0012 49.0789 6.99743 32.8375 6.99743Z" fill="#53BE95"/>
<path d="M71.9427 12.046C71.7028 10.1702 70.6791 8.4508 69.135 7.32336L60.9586 1.36024C59.7355 0.468935 58.2826 0 56.7555 0C54.5424 0 52.4983 0.981104 51.1536 2.69388L31.5234 27.6572L24.695 20.9358C23.3605 19.6188 21.5833 18.8937 19.6912 18.8937H19.5392C17.6775 18.9336 15.9409 19.6753 14.6367 20.9856L7.53804 28.1228C4.90266 30.7701 4.83846 34.9805 7.386 37.711L26.4013 58.0481C27.7359 59.4782 29.6347 60.2963 31.6079 60.2963C31.6788 60.2963 31.7531 60.2963 31.8309 60.2963C33.8851 60.2331 35.8076 59.2953 37.105 57.7222L70.4189 17.3073C71.6285 15.8407 72.1826 13.9217 71.9427 12.046ZM60.2727 13.4993L31.4558 48.4599L17.0626 33.0682L19.7149 30.4009L26.827 37.4017C28.1447 38.6987 29.9658 39.4437 31.8207 39.4437C31.9761 39.4437 32.1349 39.4371 32.2768 39.4304C34.3041 39.304 36.1792 38.3262 37.426 36.7432L57.367 11.3841L60.2693 13.5027L60.2727 13.4993Z" fill="white"/>
<path d="M11.183 34.2755L30.2017 54.6159C30.9923 55.4607 32.3641 55.4207 33.1006 54.5261L66.4112 14.1079C67.1005 13.2732 66.9417 12.0426 66.0632 11.4041L57.8868 5.44097C57.0488 4.82903 55.8697 4.99199 55.2311 5.80348L33.3473 33.6303C32.6411 34.5282 31.293 34.6114 30.4788 33.8099L21.0488 24.5276C20.2954 23.786 19.0723 23.7926 18.3256 24.5409L11.227 31.678C10.5141 32.3964 10.4972 33.5371 11.1864 34.2755H11.183Z" fill="#53BE95"/>
</g>
<defs>
<clipPath id="clip0_5663_9703">
<rect width="72" height="68.3148" fill="white"/>
</clipPath>
</defs>
</svg>
